<svg width="60" height="60" viewBox="0 0 60 60" fill="none" xmlns="http://www.w3.org/2000/svg">
<path d="M60 30C60 37.9565 56.8393 45.5871 51.2132 51.2132C45.5871 56.8393 37.9565 60 30 60C22.0435 60 14.4129 56.8393 8.7868 51.2132C3.16071 45.5871 0 37.9565 0 30C0 22.0435 3.16071 14.4129 8.7868 8.7868C14.4129 3.16071 22.0435 0 30 0C37.9565 0 45.5871 3.16071 51.2132 8.7868C56.8393 14.4129 60 22.0435 60 30ZM31.875 16.875C31.875 16.3777 31.6775 15.9008 31.3258 15.5492C30.9742 15.1975 30.4973 15 30 15C29.5027 15 29.0258 15.1975 28.6742 15.5492C28.3225 15.9008 28.125 16.3777 28.125 16.875V38.5988L20.0775 30.5475C19.7254 30.1954 19.2479 29.9976 18.75 29.9976C18.2521 29.9976 17.7746 30.1954 17.4225 30.5475C17.0704 30.8996 16.8726 31.3771 16.8726 31.875C16.8726 32.3729 17.0704 32.8504 17.4225 33.2025L28.6725 44.4525C28.8467 44.6271 29.0536 44.7656 29.2814 44.8602C29.5092 44.9547 29.7534 45.0034 30 45.0034C30.2466 45.0034 30.4908 44.9547 30.7186 44.8602C30.9464 44.7656 31.1533 44.6271 31.3275 44.4525L42.5775 33.2025C42.9296 32.8504 43.1274 32.3729 43.1274 31.875C43.1274 31.3771 42.9296 30.8996 42.5775 30.5475C42.2254 30.1954 41.7479 29.9976 41.25 29.9976C40.7521 29.9976 40.2746 30.1954 39.9225 30.5475L31.875 38.5988V16.875Z" fill="#979F89"/>
</svg>
