<svg width="60" height="81" viewBox="0 0 60 81" fill="none" xmlns="http://www.w3.org/2000/svg">
<path d="M6.69343e-07 10V77.5C-0.000316969 77.9341 0.112423 78.3609 0.327123 78.7382C0.541823 79.1155 0.851083 79.4304 1.22446 79.6519C1.59783 79.8734 2.02246 79.9939 2.45652 80.0014C2.89059 80.009 3.31915 79.9034 3.7 79.695L30 65.345L56.3 79.695C56.6809 79.9034 57.1094 80.009 57.5435 80.0014C57.9775 79.9939 58.4022 79.8734 58.7755 79.6519C59.1489 79.4304 59.4582 79.1155 59.6729 78.7382C59.8876 78.3609 60.0003 77.9341 60 77.5V10C60 7.34784 58.9464 4.8043 57.0711 2.92893C55.1957 1.05357 52.6522 0 50 0L10 0C7.34784 0 4.8043 1.05357 2.92893 2.92893C1.05357 4.8043 6.69343e-07 7.34784 6.69343e-07 10Z" fill="#326273"/>
</svg>
