<svg width="26" height="26" viewBox="0 0 26 26" fill="none" xmlns="http://www.w3.org/2000/svg">
<g clip-path="url(#clip0_546_6)">
<path d="M26 13C26 16.4478 24.6304 19.7544 22.1924 22.1924C19.7544 24.6304 16.4478 26 13 26C9.55219 26 6.24558 24.6304 3.80761 22.1924C1.36964 19.7544 0 16.4478 0 13C0 9.55219 1.36964 6.24558 3.80761 3.80761C6.24558 1.36964 9.55219 0 13 0C16.4478 0 19.7544 1.36964 22.1924 3.80761C24.6304 6.24558 26 9.55219 26 13ZM8.70025 7.54975C8.54768 7.39718 8.34076 7.31147 8.125 7.31147C7.90924 7.31147 7.70232 7.39718 7.54975 7.54975C7.39718 7.70232 7.31147 7.90924 7.31147 8.125C7.31147 8.34076 7.39718 8.54768 7.54975 8.70025L11.8511 13L7.54975 17.2997C7.47421 17.3753 7.41428 17.465 7.3734 17.5637C7.33252 17.6624 7.31147 17.7682 7.31147 17.875C7.31147 17.9818 7.33252 18.0876 7.3734 18.1863C7.41428 18.285 7.47421 18.3747 7.54975 18.4503C7.70232 18.6028 7.90924 18.6885 8.125 18.6885C8.23183 18.6885 8.33762 18.6675 8.43632 18.6266C8.53502 18.5857 8.62471 18.5258 8.70025 18.4503L13 14.1489L17.2997 18.4503C17.3753 18.5258 17.465 18.5857 17.5637 18.6266C17.6624 18.6675 17.7682 18.6885 17.875 18.6885C17.9818 18.6885 18.0876 18.6675 18.1863 18.6266C18.285 18.5857 18.3747 18.5258 18.4503 18.4503C18.5258 18.3747 18.5857 18.285 18.6266 18.1863C18.6675 18.0876 18.6885 17.9818 18.6885 17.875C18.6885 17.7682 18.6675 17.6624 18.6266 17.5637C18.5857 17.465 18.5258 17.3753 18.4503 17.2997L14.1489 13L18.4503 8.70025C18.5258 8.62471 18.5857 8.53502 18.6266 8.43632C18.6675 8.33762 18.6885 8.23183 18.6885 8.125C18.6885 8.01817 18.6675 7.91238 18.6266 7.81368C18.5857 7.71498 18.5258 7.62529 18.4503 7.54975C18.3747 7.47421 18.285 7.41428 18.1863 7.3734C18.0876 7.33252 17.9818 7.31147 17.875 7.31147C17.7682 7.31147 17.6624 7.33252 17.5637 7.3734C17.465 7.41428 17.3753 7.47421 17.2997 7.54975L13 11.8511L8.70025 7.54975Z" fill="#326273"/>
</g>
<defs>
<clipPath id="clip0_546_6">
<rect width="26" height="26" fill="white"/>
</clipPath>
</defs>
</svg>
