<svg width="40" height="40" viewBox="0 0 40 40" fill="none" xmlns="http://www.w3.org/2000/svg">
<path d="M40 20C40 25.3043 37.8929 30.3914 34.1421 34.1421C30.3914 37.8929 25.3043 40 20 40C14.6957 40 9.60859 37.8929 5.85786 34.1421C2.10714 30.3914 0 25.3043 0 20C0 14.6957 2.10714 9.60859 5.85786 5.85786C9.60859 2.10714 14.6957 0 20 0C25.3043 0 30.3914 2.10714 34.1421 5.85786C37.8929 9.60859 40 14.6957 40 20ZM13.385 11.615C13.1503 11.3803 12.8319 11.2484 12.5 11.2484C12.1681 11.2484 11.8497 11.3803 11.615 11.615C11.3803 11.8497 11.2484 12.1681 11.2484 12.5C11.2484 12.8319 11.3803 13.1503 11.615 13.385L18.2325 20L11.615 26.615C11.4988 26.7312 11.4066 26.8692 11.3437 27.021C11.2808 27.1729 11.2484 27.3356 11.2484 27.5C11.2484 27.6644 11.2808 27.8271 11.3437 27.979C11.4066 28.1308 11.4988 28.2688 11.615 28.385C11.8497 28.6197 12.1681 28.7516 12.5 28.7516C12.6644 28.7516 12.8271 28.7192 12.979 28.6563C13.1308 28.5934 13.2688 28.5012 13.385 28.385L20 21.7675L26.615 28.385C26.7312 28.5012 26.8692 28.5934 27.021 28.6563C27.1729 28.7192 27.3356 28.7516 27.5 28.7516C27.6644 28.7516 27.8271 28.7192 27.979 28.6563C28.1308 28.5934 28.2688 28.5012 28.385 28.385C28.5012 28.2688 28.5934 28.1308 28.6563 27.979C28.7192 27.8271 28.7516 27.6644 28.7516 27.5C28.7516 27.3356 28.7192 27.1729 28.6563 27.021C28.5934 26.8692 28.5012 26.7312 28.385 26.615L21.7675 20L28.385 13.385C28.5012 13.2688 28.5934 13.1308 28.6563 12.979C28.7192 12.8271 28.7516 12.6644 28.7516 12.5C28.7516 12.3356 28.7192 12.1729 28.6563 12.021C28.5934 11.8692 28.5012 11.7312 28.385 11.615C28.2688 11.4988 28.1308 11.4066 27.979 11.3437C27.8271 11.2808 27.6644 11.2484 27.5 11.2484C27.3356 11.2484 27.1729 11.2808 27.021 11.3437C26.8692 11.4066 26.7312 11.4988 26.615 11.615L20 18.2325L13.385 11.615Z" fill="#979F89"/>
</svg>
