<svg width="22" height="22" viewBox="0 0 22 22" fill="none" xmlns="http://www.w3.org/2000/svg">
<path d="M21.9508 0.942971C22.0008 0.818035 22.013 0.681169 21.986 0.549341C21.9589 0.417512 21.8938 0.29652 21.7986 0.201362C21.7035 0.106204 21.5825 0.0410663 21.4507 0.0140239C21.3188 -0.0130185 21.182 -0.000776307 21.0571 0.0492327L1.05562 8.05026H1.05424L0.432766 8.29775C0.315057 8.34471 0.212616 8.42328 0.13676 8.5248C0.0609043 8.62633 0.0145852 8.74684 0.00291933 8.87303C-0.00874651 8.99922 0.014695 9.12619 0.0706543 9.23989C0.126614 9.3536 0.212913 9.44962 0.32002 9.51736L0.88375 9.87486L0.885125 9.87761L7.75301 14.2473L12.1226 21.1153L12.1254 21.1181L12.4828 21.6818C12.5508 21.7885 12.6469 21.8744 12.7605 21.93C12.8741 21.9856 13.0009 22.0088 13.1268 21.997C13.2528 21.9852 13.373 21.9389 13.4743 21.8631C13.5756 21.7874 13.6541 21.6852 13.7011 21.5677L21.9508 0.942971ZM19.4305 3.54169L9.12659 13.8458L8.83097 13.3811C8.77681 13.2958 8.70451 13.2235 8.61923 13.1693L8.1545 12.8737L18.4584 2.56958L20.0781 1.92196L19.4319 3.54169H19.4305Z" fill="#1E2A33"/>
</svg>
