<svg width="60" height="80" viewBox="0 0 60 80" fill="none" xmlns="http://www.w3.org/2000/svg">
<path d="M36.465 0H10C7.34784 0 4.8043 1.05357 2.92893 2.92893C1.05357 4.8043 0 7.34784 0 10V70C0 72.6522 1.05357 75.1957 2.92893 77.0711C4.8043 78.9464 7.34784 80 10 80H50C52.6522 80 55.1957 78.9464 57.0711 77.0711C58.9464 75.1957 60 72.6522 60 70V23.535C59.9997 22.209 59.4727 20.9375 58.535 20L40 1.465C39.0625 0.527253 37.791 0.000283187 36.465 0ZM37.5 17.5V7.5L52.5 22.5H42.5C41.1739 22.5 39.9021 21.9732 38.9645 21.0355C38.0268 20.0979 37.5 18.8261 37.5 17.5ZM45 40C45 43.9782 43.4196 47.7936 40.6066 50.6066C37.7936 53.4196 33.9782 55 30 55C26.0218 55 22.2064 53.4196 19.3934 50.6066C16.5804 47.7936 15 43.9782 15 40C15 36.0218 16.5804 32.2064 19.3934 29.3934C22.2064 26.5804 26.0218 25 30 25C33.9782 25 37.7936 26.5804 40.6066 29.3934C43.4196 32.2064 45 36.0218 45 40ZM55 68.775V70C55 71.3261 54.4732 72.5979 53.5355 73.5355C52.5979 74.4732 51.3261 75 50 75H10C8.67392 75 7.40215 74.4732 6.46447 73.5355C5.52678 72.5979 5 71.3261 5 70V68.775C5 68.775 10 60 30 60C50 60 55 68.775 55 68.775Z" fill="#F9A620"/>
</svg>
