<svg width="225" height="44" viewBox="0 0 225 44" fill="none" xmlns="http://www.w3.org/2000/svg">
<path d="M14.088 43H0.072V2.872H14.088C18.184 2.872 21.4267 3.21333 23.816 3.896C26.248 4.57867 28.1893 5.66667 29.64 7.16C31.0907 8.65333 32.136 10.68 32.776 13.24C33.4587 15.7573 33.8 18.9787 33.8 22.904C33.8 29.8587 32.2427 34.9573 29.128 38.2C26.0133 41.4 21 43 14.088 43ZM21.96 14.392C21.3627 13.496 20.488 12.856 19.336 12.472C18.184 12.0453 16.4347 11.832 14.088 11.832H9.992V33.72H14.088C16.392 33.72 18.12 33.528 19.272 33.144C20.424 32.76 21.32 32.1413 21.96 31.288C22.5147 30.4773 22.92 29.4107 23.176 28.088C23.432 26.7227 23.56 24.9947 23.56 22.904C23.56 20.7707 23.432 19.0427 23.176 17.72C22.92 16.3547 22.5147 15.2453 21.96 14.392ZM47.212 43.64C43.9693 43.64 41.58 42.8293 40.044 41.208C38.5507 39.5867 37.804 37.0267 37.804 33.528C37.804 29.944 38.7 27.4267 40.492 25.976C42.3267 24.5253 45.4627 23.8 49.9 23.8C50.924 23.8 51.9693 23.864 53.036 23.992C54.1453 24.0773 55.1053 24.2053 55.916 24.376V22.072C55.916 21.048 55.468 20.3013 54.572 19.832C53.7187 19.32 52.396 19.064 50.604 19.064C48.556 19.064 46.7213 19.128 45.1 19.256C43.5213 19.3413 42.0707 19.512 40.748 19.768V11.896C42.3267 11.512 44.1613 11.2347 46.252 11.064C48.3427 10.8507 50.7747 10.744 53.548 10.744C57.4733 10.744 60.4387 11.6187 62.444 13.368C64.492 15.1173 65.516 17.6987 65.516 21.112V43H56.556L56.236 40.312H56.044C54.7213 41.336 53.2707 42.1467 51.692 42.744C50.1133 43.3413 48.62 43.64 47.212 43.64ZM51.18 30.136C49.4733 30.136 48.3213 30.328 47.724 30.712C47.1267 31.0533 46.828 31.8 46.828 32.952C46.828 34.0187 47.0627 34.7653 47.532 35.192C48.044 35.576 48.9187 35.768 50.156 35.768C51.0947 35.768 52.076 35.64 53.1 35.384C54.124 35.128 55.0627 34.808 55.916 34.424V30.52C55.404 30.392 54.764 30.3067 53.996 30.264C53.228 30.1787 52.2893 30.136 51.18 30.136ZM81.787 43H72.187V11.384H80.507L80.891 14.712H81.083C82.4483 13.304 83.9203 12.3013 85.499 11.704C87.1203 11.064 89.0617 10.744 91.323 10.744C94.907 10.744 97.6163 11.6187 99.451 13.368C101.286 15.1173 102.203 17.6987 102.203 21.112V43H92.603V22.392C92.603 21.4107 92.1977 20.664 91.387 20.152C90.619 19.64 89.467 19.384 87.931 19.384C86.779 19.384 85.6697 19.512 84.603 19.768C83.5363 20.024 82.5977 20.3867 81.787 20.856V43ZM118.698 7.928H108.586V0.439999H118.698V7.928ZM118.442 43H108.842V11.384H118.442V43ZM135.487 30.072V43H125.567V2.872H140.223C146.41 2.872 150.804 3.91733 153.407 6.008C156.01 8.09866 157.311 11.576 157.311 16.44C157.311 19.7253 156.607 22.4133 155.199 24.504C153.834 26.552 151.743 28.0453 148.927 28.984L158.719 43H146.815L138.495 30.072H135.487ZM147.263 16.44C147.263 14.7333 146.751 13.5387 145.727 12.856C144.703 12.1733 142.868 11.832 140.223 11.832H135.487V22.072H140.223C142.868 22.072 144.703 21.6667 145.727 20.856C146.751 20.0027 147.263 18.5307 147.263 16.44ZM192.857 27.192C192.857 33.1227 191.662 37.3467 189.273 39.864C186.884 42.3813 182.873 43.64 177.241 43.64C171.609 43.64 167.598 42.3813 165.209 39.864C162.82 37.3467 161.625 33.1227 161.625 27.192C161.625 21.2613 162.82 17.0373 165.209 14.52C167.598 12.0027 171.609 10.744 177.241 10.744C182.873 10.744 186.884 12.0027 189.273 14.52C191.662 17.0373 192.857 21.2613 192.857 27.192ZM171.225 27.064C171.225 30.3067 171.566 32.3973 172.249 33.336C172.974 34.2747 174.638 34.744 177.241 34.744C179.844 34.744 181.486 34.2747 182.169 33.336C182.894 32.3973 183.257 30.3067 183.257 27.064C183.257 23.8213 182.894 21.7307 182.169 20.792C181.486 19.8533 179.844 19.384 177.241 19.384C174.638 19.384 172.974 19.8533 172.249 20.792C171.566 21.7307 171.225 23.8213 171.225 27.064ZM214.791 26.552L224.455 43H213.959L208.903 33.208L203.847 43H193.927L203.655 26.552L194.055 11.384H205.255L209.735 20.28L214.407 11.384H224.327L214.791 26.552Z" fill="#1E2A33"/>
</svg>
