<svg width="60" height="45" viewBox="0 0 60 45" fill="none" xmlns="http://www.w3.org/2000/svg">
<path d="M0.1875 5.83125C0.565568 4.17466 1.49496 2.69555 2.82346 1.63616C4.15195 0.576764 5.80082 -0.000114354 7.5 1.7003e-08H52.5C54.1992 -0.000114354 55.848 0.576764 57.1765 1.63616C58.505 2.69555 59.4344 4.17466 59.8125 5.83125L30 24.0525L0.1875 5.83125ZM0 10.1138V36.7537L21.7612 23.4113L0 10.1138ZM25.3538 25.6125L0.71625 40.7138C1.32497 41.9973 2.28572 43.0816 3.48668 43.8404C4.68764 44.5992 6.0794 45.0014 7.5 45H52.5C53.9204 45.0003 55.3116 44.5973 56.5119 43.8378C57.7121 43.0784 58.6721 41.9937 59.28 40.71L34.6425 25.6088L30 28.4475L25.3538 25.6125ZM38.2387 23.415L60 36.7537V10.1138L38.2387 23.4113V23.415Z" fill="#979F89"/>
</svg>
