<svg width="22" height="20" viewBox="0 0 22 20" fill="none" xmlns="http://www.w3.org/2000/svg">
<path d="M8.24911 6.19999C8.24911 6.74695 8.03183 7.2715 7.64508 7.65826C7.25832 8.04502 6.73377 8.26229 6.18681 8.26229C5.63985 8.26229 5.1153 8.04502 4.72854 7.65826C4.34179 7.2715 4.12451 6.74695 4.12451 6.19999C4.12451 5.65304 4.34179 5.12848 4.72854 4.74173C5.1153 4.35497 5.63985 4.1377 6.18681 4.1377C6.73377 4.1377 7.25832 4.35497 7.64508 4.74173C8.03183 5.12848 8.24911 5.65304 8.24911 6.19999Z" fill="#1E2A33"/>
<path d="M2.74973 0.0130615C2.02046 0.0130615 1.32105 0.302765 0.805378 0.818439C0.289703 1.33411 0 2.03352 0 2.76279V16.5114C0 17.2407 0.289703 17.9401 0.805378 18.4558C1.32105 18.9715 2.02046 19.2612 2.74973 19.2612H19.2481C19.9774 19.2612 20.6768 18.9715 21.1925 18.4558C21.7082 17.9401 21.9979 17.2407 21.9979 16.5114V2.76279C21.9979 2.03352 21.7082 1.33411 21.1925 0.818439C20.6768 0.302765 19.9774 0.0130615 19.2481 0.0130615H2.74973ZM19.2481 1.38793C19.6128 1.38793 19.9625 1.53278 20.2203 1.79062C20.4781 2.04845 20.623 2.39816 20.623 2.76279V11.6994L15.4301 9.02256C15.3012 8.95797 15.1552 8.93556 15.0128 8.95851C14.8705 8.98146 14.7389 9.04859 14.6368 9.15042L9.53607 14.2512L5.87893 11.8149C5.74688 11.727 5.5885 11.6875 5.43064 11.703C5.27277 11.7185 5.12513 11.7882 5.01276 11.9001L1.37487 15.1366V2.76279C1.37487 2.39816 1.51972 2.04845 1.77755 1.79062C2.03539 1.53278 2.38509 1.38793 2.74973 1.38793H19.2481Z" fill="#1E2A33"/>
</svg>
