<svg width="45" height="60" viewBox="0 0 45 60" fill="none" xmlns="http://www.w3.org/2000/svg">
<path d="M22.5 60C22.5 60 45 38.6775 45 22.5C45 16.5326 42.6295 10.8097 38.4099 6.5901C34.1903 2.37053 28.4674 0 22.5 0C16.5326 0 10.8097 2.37053 6.5901 6.5901C2.37053 10.8097 8.89208e-08 16.5326 0 22.5C0 38.6775 22.5 60 22.5 60ZM22.5 33.75C19.5163 33.75 16.6548 32.5647 14.545 30.455C12.4353 28.3452 11.25 25.4837 11.25 22.5C11.25 19.5163 12.4353 16.6548 14.545 14.545C16.6548 12.4353 19.5163 11.25 22.5 11.25C25.4837 11.25 28.3452 12.4353 30.455 14.545C32.5647 16.6548 33.75 19.5163 33.75 22.5C33.75 25.4837 32.5647 28.3452 30.455 30.455C28.3452 32.5647 25.4837 33.75 22.5 33.75Z" fill="#F9A620"/>
</svg>
