<svg width="68" height="67" viewBox="0 0 68 67" fill="none" xmlns="http://www.w3.org/2000/svg">
<path d="M34 0C15.215 0 0 15.215 0 34C0 49.045 9.7325 61.7525 23.2475 66.2575C24.9475 66.555 25.585 65.535 25.585 64.6425C25.585 63.835 25.5425 61.1575 25.5425 58.31C17 59.8825 14.79 56.2275 14.11 54.315C13.7275 53.3375 12.07 50.32 10.625 49.5125C9.435 48.875 7.735 47.3025 10.5825 47.26C13.26 47.2175 15.1725 49.725 15.81 50.745C18.87 55.8875 23.7575 54.4425 25.7125 53.55C26.01 51.34 26.9025 49.8525 27.88 49.0025C20.315 48.1525 12.41 45.22 12.41 32.215C12.41 28.5175 13.7275 25.4575 15.895 23.0775C15.555 22.2275 14.365 18.7425 16.235 14.0675C16.235 14.0675 19.0825 13.175 25.585 17.5525C28.305 16.7875 31.195 16.405 34.085 16.405C36.975 16.405 39.865 16.7875 42.585 17.5525C49.0875 13.1325 51.935 14.0675 51.935 14.0675C53.805 18.7425 52.615 22.2275 52.275 23.0775C54.4425 25.4575 55.76 28.475 55.76 32.215C55.76 45.2625 47.8125 48.1525 40.2475 49.0025C41.48 50.065 42.5425 52.105 42.5425 55.2925C42.5425 59.84 42.5 63.495 42.5 64.6425C42.5 65.535 43.1375 66.5975 44.8375 66.2575C51.5875 63.9795 57.4529 59.6417 61.6081 53.855C65.7633 48.0682 67.9988 41.124 68 34C68 15.215 52.785 0 34 0Z" fill="#F9A620"/>
</svg>
