<svg width="22" height="22" viewBox="0 0 22 22" fill="none" xmlns="http://www.w3.org/2000/svg">
<path d="M12.0367 1.24591C11.7617 0.970976 11.3887 0.816528 10.9999 0.816528C10.611 0.816528 10.238 0.970976 9.96302 1.24591L0.215039 10.9924C0.146863 11.0606 0.0927831 11.1415 0.0558867 11.2306C0.0189903 11.3197 0 11.4152 0 11.5116C0 11.608 0.0189903 11.7035 0.0558867 11.7925C0.0927831 11.8816 0.146863 11.9625 0.215039 12.0307C0.352726 12.1684 0.539469 12.2458 0.734188 12.2458C0.830603 12.2458 0.926074 12.2268 1.01515 12.1899C1.10423 12.153 1.18516 12.0989 1.25334 12.0307L10.9999 2.28274L20.7464 12.0307C20.8841 12.1684 21.0708 12.2458 21.2655 12.2458C21.4602 12.2458 21.647 12.1684 21.7847 12.0307C21.9224 11.893 21.9997 11.7063 21.9997 11.5116C21.9997 11.3169 21.9224 11.1301 21.7847 10.9924L18.3325 7.54169V2.71243C18.3325 2.51796 18.2552 2.33145 18.1177 2.19394C17.9802 2.05642 17.7937 1.97917 17.5992 1.97917H16.1327C15.9382 1.97917 15.7517 2.05642 15.6142 2.19394C15.4767 2.33145 15.3994 2.51796 15.3994 2.71243V4.60864L12.0367 1.24591Z" fill="#1E2A33"/>
<path d="M10.9998 3.87543L19.799 12.6746V18.8442C19.799 19.4277 19.5672 19.9872 19.1547 20.3997C18.7421 20.8123 18.1826 21.044 17.5992 21.044H4.40047C3.81705 21.044 3.25753 20.8123 2.84499 20.3997C2.43245 19.9872 2.20068 19.4277 2.20068 18.8442V12.6746L10.9998 3.87543Z" fill="#1E2A33"/>
</svg>
