<svg width="80" height="80" viewBox="0 0 80 80" fill="none" xmlns="http://www.w3.org/2000/svg">
<path d="M52.3456 68.2963H32.6823V12H52.3456C58.0919 12 62.6411 12.4789 65.9932 13.4366C69.4051 14.3943 72.1286 15.9207 74.1638 18.0157C76.1989 20.1107 77.6655 22.954 78.5633 26.5455C79.5211 30.0771 79.9999 34.5964 79.9999 40.1033C79.9999 49.8601 77.8151 57.0131 73.4455 61.5623C69.0759 66.0517 62.0425 68.2963 52.3456 68.2963ZM63.3893 28.1616C62.5513 26.9046 61.3243 26.0067 59.7081 25.468C58.0919 24.8694 55.6378 24.5702 52.3456 24.5702H46.5992V55.2773H52.3456C55.5779 55.2773 58.0021 55.0079 59.6183 54.4692C61.2345 53.9305 62.4915 53.0625 63.3893 51.8654C64.1675 50.7281 64.7362 49.2316 65.0953 47.376C65.4544 45.4606 65.634 43.0363 65.634 40.1033C65.634 37.1104 65.4544 34.6861 65.0953 32.8305C64.7362 30.9151 64.1675 29.3588 63.3893 28.1616Z" fill="#F5B700"/>
<path d="M32.5926 50.1594V68.2963H46.5095V12H25.9483C17.2689 12 11.1036 13.4665 7.45225 16.3996C3.80092 19.3326 1.97525 24.211 1.97525 31.0348C1.97525 35.6439 2.9629 39.4149 4.93821 42.348C6.85366 45.2211 9.7867 47.3162 13.7373 48.633L-6.1639e-05 68.2963H16.7003L28.3726 50.1594H32.5926ZM16.0718 31.0348C16.0718 28.6405 16.7901 26.9645 18.2267 26.0067C19.6633 25.049 22.2371 24.5702 25.9483 24.5702H32.5926V38.9361H25.9483C22.2371 38.9361 19.6633 38.3674 18.2267 37.2301C16.7901 36.0329 16.0718 33.9678 16.0718 31.0348Z" fill="#F5B700"/>
</svg>
