<svg xmlns="http://www.w3.org/2000/svg" viewBox="0 0 434.4 127.81"><defs><style>.a{fill:#1e2a33;}</style></defs><title>logo-DaniRox</title><path class="a" d="M202.48,228.45a31.26,31.26,0,0,1-1.4,6.7q-1.2,3.9-2,4.7l-.2.4c.13.14-.24,1-1.1,2.5s-1.9,3.2-3.1,5-2.34,3.44-3.4,4.9-1.74,2.2-2,2.2-.4.2-.4.6a5.83,5.83,0,0,1-.6.9c-.27.34-.54.44-.8.3v.2a2.16,2.16,0,0,1-.5,1.1c-.34.47-.57.7-.7.7.13,0,.26-.2.4-.6s.36-.63.3-.7-.17,0-.3.3-.1.2-.3-.2-.24-.33-.1.2a2.5,2.5,0,0,1-.2.9c-.14.34-.34.37-.6.1h-.2c.13.14.06.4-.2.8a6.85,6.85,0,0,1-.8,1,2.7,2.7,0,0,1-.6.5c-.14.07,0-.1.4-.5s.13-.4-.4,0-.6.8-.2.8c.13.27.06.44-.2.5s-.4,0-.4-.1.1-.4-.1-.4-.3.07-.3.2,0,.44-.3.5a.94.94,0,0,0-.7.5c.13.67,0,.87-.5.6s-.57-.26-.3,0c0,.27.13.34.4.2s.26-.06,0,.2-.44.37-.9.3-.5,0-.1.1.4.24.4.3a4.36,4.36,0,0,1-.8.9c-.94.8-1.27.8-1,0,0-.26.06-.33.2-.2s.1.3.3.1a1.22,1.22,0,0,0,.3-.9c0-.66.1-.93.3-.8s.36.07.5-.2-.07-.33-.2-.2-.2.07-.2-.2.26-.36.4-.3.26,0,.4-.3c.13-.8.4-1.06.8-.8s.46.14.6,0-.2-.36-.6-.3-.27-.16.4-.7a2.83,2.83,0,0,0,.5-.6,1.09,1.09,0,0,1,.5-.4c.26-.13.36-.26.3-.4s-.24-.06-.5.2-.8.74-1.6,1.4-1.2,1.14-1.2,1.4-.27.37-.4.3-.27,0-.4.3-.54,1-1.6,2.1-2.14,2.24-3.2,3.3-1.6,1.54-1.6,1.4-.07-.06-.2.2-.27.44-.8.9l-1.6,1.4c-.54.47-.94.84-1.2,1.1s-.14.27.4,0h0a3.81,3.81,0,0,0-.9.7l-1,1c-.34.34-.5.57-.5.7s0,.2-.1.2-.1-.06-.1-.2c-.27-.13-.57,0-.9.5a8.12,8.12,0,0,1-1.5,1.5c-.8.67-1.14,1.07-1,1.2s.06.14-.2,0a.35.35,0,0,0-.4.4c0,.27-.07.34-.2.2s-.24-.16-.3-.1-.3.27-.7.6-1,.87-1.8,1.6-2,1.77-3.6,3.1c-1.2,1.07-1.77,1.67-1.7,1.8s0,.14-.3,0a7.81,7.81,0,0,0-1.7,1.1c-1,.74-1.44,1.17-1.3,1.3a.57.57,0,0,0-.4.2,3.93,3.93,0,0,0-1.2.8c-.67.54-1.4,1.17-2.2,1.9a25.25,25.25,0,0,1-2.3,1.9,4.71,4.71,0,0,1-1.3.8c-.27-.13-.4,0-.4.4s-.07.47-.2.2-.67.14-1.6.8a38.35,38.35,0,0,0-3,2.4c-1.2.94-2.6,2-4.2,3.2-.27.14-.34.07-.2-.2s.3-.33.1-.2a5.4,5.4,0,0,0-.7.6c-.8.67-1.24,1.14-1.3,1.4s-.17.27-.3,0-.5-.1-1.1.5-1,.9-1.3.9a2,2,0,0,0-1.1.6c-.47.4-.57.47-.3.2s.26-.33,0-.2a.65.65,0,0,0-.4.6,1.74,1.74,0,0,1-.9.7c-.47.2-.57.17-.3-.1s-.2,0-1.4.9a14.41,14.41,0,0,1-2.8,1.7c-.4.27-.57.47-.5.6s0,.14-.3,0-.44,0-.5.3-.24.44-.5.3c0-.13-.17-.06-.5.2s-.7.54-1.1.8a9.31,9.31,0,0,1-1,.6c-.27.14-.34.14-.2,0s.13-.16-.4.3-.74.64-.6.5-.27-.16-.8.3-.94.64-1.2.5-.24-.06-.3.2-.84.8-2.3,1.6a15.54,15.54,0,0,1-1.7.9c-.47.2-.64.24-.5.1s-.14-.06-.4.2a8.88,8.88,0,0,1-2.1,1.1c-.87.34-1.3.64-1.3.9v-.2c-.14-.13-.47,0-1,.4-.67.67-.84.8-.5.4s.23-.4-.3,0-.6.34-.6.2-.27.07-.8.6-.77.64-.7.3,0-.3-.3.1a4.52,4.52,0,0,1-1.2.8c-.54.27-.67.27-.4,0,0-.26-.2-.2-.6.2s-.87.7-1,.5-.27-.16-.4.1-.5.54-.7.4-.3-.06-.3.2,0,.37-.3.3a7.34,7.34,0,0,0-2.7.9l1,1.2c.93-.8,1.4-1,1.4-.6s.1.47-.1.6-.37.14-.5,0h-.4a.57.57,0,0,0-.4.2c-.14.27,0,.4.4.4s.4-.06.4-.2a2.33,2.33,0,0,1,1.4-.5c.66-.06.86-.23.6-.5,0-.4-.27-.4-.8,0-.27.27-.34.24-.2-.1a1.27,1.27,0,0,1,.6-.7c.4-.13.53-.13.4,0s.06.14.2,0q.6-.39.9-.3t.3-.3c0-.4.13-.46.4-.2.53.14.7,0,.5-.3s-.24-.36-.1-.1.43.14.5,0,.43-.26,1.1-.4.6-.06.2.2-.7.34-.9.2-.17-.06.1.2c.26.54.2.67-.2.4s-.6-.2-.6.2l-.4.2a.83.83,0,0,0-.9.2,2.49,2.49,0,0,0-.7.8c0,.54-.2.8-.6.8s-.54.14-.4.4-.07.14-.2,0a3.38,3.38,0,0,0-1,.2,2.31,2.31,0,0,0-.8.4c.13.27.13.34,0,.2s-.4-.06-.8.2-.6.34-.6.2-.07-.06-.2.2a.4.4,0,0,1-.6.2.65.65,0,0,0-.8.2.4.4,0,0,1-.6.2.39.39,0,0,1-.2-.6h.6c.13.13.16.1.1-.1s-.3-.3-.7-.3-.6.27-.2.8.33.7.2.5-.34-.17-.6.1-.4.37-.8.3-.6,0-.6.3-.14.13-.4,0-.4-.07-.4.2a.25.25,0,0,1-.4,0c-.14-.13-.34-.07-.6.2s-.37.3-.7.1-.44-.17-.3.1.13.3-.4.1-.8-.17-.8.1-.6.2-2.2.2a6.44,6.44,0,0,1-5.3-1.6c-1.54-1.33-2.57-2.26-3.1-2.8a10,10,0,0,1-2.5-3.8,7.83,7.83,0,0,1,.1-4.8c.26-1.06.46-1.8.6-2.2a9.27,9.27,0,0,1,1.2-2c.4-.53,1-1.33,1.9-2.4a40.39,40.39,0,0,1,2.8-3.1,20.07,20.07,0,0,1,3-2.5,5.08,5.08,0,0,1,2.7-1q.39,0,.9-.9t2.9-6.3q6.19-14,8.3-23a52.56,52.56,0,0,0,1.7-14.9,22.43,22.43,0,0,0-2.6-9.7q-2.2-3.79-4.6-7.4-1.8-2.79-3.8-5.6a6.6,6.6,0,0,1-1.2-5.8,12.2,12.2,0,0,1,1.1-2.4c.46-.8.83-1.2,1.1-1.2s.2-.13.2-.4.23-.5.7-.7.7-.43.7-.7-.07-.33.2-.2.4.07.4-.2q.2-.8,1.5-1.2c.86-.26,1.23-.53,1.1-.8s.06-.33.2-.2.86-.2,2.2-1,2.53-1.36,4-2.1,2.83-1.4,4.1-2,2.83-1.3,4.7-2.1q0-.19.3,0c.2.14.43.07.7-.2s.5-.33.7-.2.3.07.3-.2.1-.33.7-.2.83,0,.7-.4h.4c.4.27.5.24.3-.1s-.17-.36.1-.1.33.07.6-.2c-.27-.26-.27-.3,0-.1a.55.55,0,0,0,.8-.1c.13-.26.26-.3.4-.1s.2.17.2-.1.23-.33.3-.2.23.14.5,0,.43-.33.5-.2.16.07.3-.2.1-.3.3-.1.56.1,1.1-.3l.2-.2c-.27.54-.2.6.2.2.26-.13.4-.26.4-.4s.2-.13.6,0,.63,0,1.1-.4.63-.46.5-.2c.13.27.4.34.8.2s.53-.26.4-.4,1.2-.43,3.6-.9,5.06-1,8-1.5q5-1,11.4-2.2a.25.25,0,0,1,.4,0c.13.14.66.07,1.6-.2q3.19-.6,8.1-1a90.66,90.66,0,0,1,10.4-.2c3.66.14,7.26.4,10.8.8a48.93,48.93,0,0,1,9.1,1.8c1.2.54,1.86.6,2,.2a.85.85,0,0,0-.2-.6c-.14-.13-.2-.06-.2.2s-.34.34-1.4-.2a2.2,2.2,0,0,1-.7-.3c-.07-.06,0-.1.3-.1s.23-.16-.5-.1-1,0-.9-.1c.53-.26.6-.4.2-.4-.67-.26-.9-.3-.7-.1s.1.3-.3.3-.27-.06,0-.2c0-.13-.27-.2-.8-.2h-.7a.78.78,0,0,0,.3-.1c.13-.06.16-.13.1-.2a3.06,3.06,0,0,0-1.1-.1h-1l.6-.2h-1.2c-.8,0-1.2,0-1.2-.1s.06-.13.2-.2a.86.86,0,0,1,.3-.1h-.5a1.12,1.12,0,0,1-.8-.2c-.14-.13.06-.2.6-.2a22.37,22.37,0,0,1,2.8.3,36.19,36.19,0,0,1,5.6,1.5,2.51,2.51,0,0,0,1.1.4c.6.14.83.27.7.4h.2a.78.78,0,0,0,.6.2,15.34,15.34,0,0,1,4.2,1q2,.81,1.8,1.2c-.14.14-.2.24-.2.3s.06,0,.2-.1.6,0,1,.5.86,1,1.4,1.7a12.66,12.66,0,0,1,1.4,2.2,10.83,10.83,0,0,1,.8,2,38.54,38.54,0,0,0,2.1,4.4Q203.08,222.06,202.48,228.45Zm-13.8,12.8a11.72,11.72,0,0,0,1.8-2.5,56.65,56.65,0,0,0,3.3-6.1,61.91,61.91,0,0,0,2.9-7.3,9.91,9.91,0,0,0,.4-6.1,4.73,4.73,0,0,0-.9-1.4,24.84,24.84,0,0,0-2.7-2.4q-5-4.39-14.8-5.7a99.49,99.49,0,0,0-21.4-.3,176.94,176.94,0,0,0-23.6,3.7,164.65,164.65,0,0,0-21.6,6.3,78.26,78.26,0,0,0-15.5,7.5q-5.91,3.9-5.3,7.3a15.36,15.36,0,0,0,1.4,2.5q1.2,1.91,2.8,4.3c1.06,1.6,2.1,3.2,3.1,4.8a30.57,30.57,0,0,1,2.1,3.8,27.93,27.93,0,0,1,2.2,7.9,32.11,32.11,0,0,1,.1,6.6,34.86,34.86,0,0,1-.7,4.5c-.27,1.07-.34,1.54-.2,1.4l7-12.1q2.6-4.5,4.9-8.3a22,22,0,0,1,2.7-4c.26,0,.23.2-.1.6s-.24.54.3.4.6.07.6.2-.07.3.2.1a.72.72,0,0,1,.8-.1c.26,0,.6-.26,1-.8s.46-.8.2-.8-.27-.06,0-.2a1.34,1.34,0,0,0,.6-.6,8,8,0,0,1,1.4-2.2c.13,0,.2-.13.2-.4s.06-.6.2-.6.4-.33.8-1,.46-1,.6-1.1a1.09,1.09,0,0,0,.4-.5,10.64,10.64,0,0,1,1.6-2.5,4.39,4.39,0,0,0,1.2-2.3c-.14-.26-.1-.36.1-.3s.56-.36,1.1-1.3a20.08,20.08,0,0,0,1.2-2,2.6,2.6,0,0,1,.8-1.3c.53-.6.8-1,.8-1.3a9.08,9.08,0,0,0,1-1.3,5.63,5.63,0,0,0,.8-1.7.64.64,0,0,1,.6-.4c.26.14.4-.06.4-.6s.13-.8.4-.8.4-.26.8-.8a2.4,2.4,0,0,0,.6-1.2c-.14-.13-.14-.2,0-.2s.73-.6,1.8-2.2a6.28,6.28,0,0,1,.9-1.4c.06,0,.16-.26.3-.8s.46-.6.6-.6c.26.27.26.14,0-.4,0-.4.6-1,1.8-1.7s1.93-.76,2.2-.1c.26.4.53.54.8.4s.8.34,1.6,1.4a3.64,3.64,0,0,1,1,2.2,8.47,8.47,0,0,1-1.4,3.4q-1.41,2.4-4.3,6.9t-7.9,12.5q-3.6,5.81-6.2,9.8t-4.5,7.2q-1.91,3.21-3.6,6c-1.14,1.87-2.3,4-3.5,6.4q-5.61,11-9.4,18.7t-6.4,12.9l-4.1,8.2a40.21,40.21,0,0,1-2.6,4.6,7.65,7.65,0,0,1-1.9,2.1,5.3,5.3,0,0,1-2,.7c-.8.14-1.3.1-1.5-.1a1.22,1.22,0,0,1-.3-.9,6.74,6.74,0,0,1,.2-1.5,8,8,0,0,0,.2-1.7,1.06,1.06,0,0,1,.3-1.2c.33-.26.36-.4.1-.4s-.44.1-.5.3a.47.47,0,0,1-.5.3c-.4,0-.8.57-1.2,1.7s-.8,1.7-1.2,1.7-.44-.2-.5-.6a8.2,8.2,0,0,1-.1-1.4v-1.5a1.41,1.41,0,0,0-.2-.9c0-.26-.17-.33-.5-.2a2,2,0,0,0-.9.8c0,.4-.27.74-.8,1s-.57.67-.5.8,0,.2-.3.2-.37.07-.3.2,0,.27-.3.4a.9.9,0,0,0-.5.6,1.8,1.8,0,0,1-.5.8,4.36,4.36,0,0,0-.6,1c-.14.27-.27.54-.4.8-.27,0-.4.27-.4.8v1.2l.2,1a33.15,33.15,0,0,0,6-.8q3.19-1,7.9-3t9.4-4.3q4.69-2.29,8.6-4.4t5.5-3.1q7-4.2,11.4-7.1t7.1-4.8q2.7-1.89,3.9-2.7c.8-.53,1.26-.73,1.4-.6,0-.26.43-.73,1.3-1.4s2.7-2,5.5-4c.8-.66,1.33-1,1.6-1s.33-.06.2-.2.3-.53,1.3-1.2a6,6,0,0,0,1.7-1.4c0-.26.13-.36.4-.3s.66-.23,1.2-.9c.13-.13.86-.76,2.2-1.9s2.86-2.46,4.6-4l5-4.4q2.4-2.1,3.4-3.1c.53-.53.93-.76,1.2-.7s.33,0,.2-.1,0-.53.5-.8.7-.53.7-.8-.1-.16.1-.1.43-.1.7-.5.6-.76.6-.7.16,0,.5-.3,1-.9,2-1.9,2.7-2.83,5.1-5.5q2.4-2.6,3.4-3.9a15.73,15.73,0,0,0,1.2-1.7c.13-.26.16-.4.1-.4s0-.06.3-.2.46-.33,1-1,1.1-1.4,1.7-2.2,1.36-1.86,2.3-3.2C188.54,241.32,188.54,241.25,188.68,241.25Zm-97.6,84c.8-.13,1-.4.6-.8s-.57-.46-.9-.2a.8.8,0,0,1-.9.2c-.14-.13-.17-.1-.1.1s-.1.3-.5.3a5.14,5.14,0,0,0-1.5.4,5.25,5.25,0,0,1-1.7.4,11.26,11.26,0,0,0-2.6.6q-1,.4-.6,0a.36.36,0,0,0-.4-.4,1.16,1.16,0,0,0-.8.4,1.21,1.21,0,0,1-1.1.3,1.08,1.08,0,0,1-.9-.5c-.14-.13-.34-.06-.6.2s-.24.23.1.3.73.13,1.2.2l1.4.2a1.83,1.83,0,0,1,.9.3c.13.13.2.07.2-.2s.2-.3,1-.1,1.06.23.8.1-.34-.3-.2-.5.2-.23.2-.1a1.85,1.85,0,0,0,1.3-.1c.6-.2.76-.16.5.1,0,.13.1.2.3.2s.36-.2.5-.6,0-.6.1-.2.16.47.3.2.13-.36.4-.3.4,0,.4-.3a1,1,0,0,1,.7-.2c.33,0,.5.07.5.2S90.14,325.65,91.08,325.25Zm-8,3.2c.26,0,.33-.07.2-.2a1.52,1.52,0,0,0-.5.1C82.58,328.42,82.68,328.45,83.08,328.45Zm4-18.4c-.14.54-.1.77.1.7a.9.9,0,0,0,.5-.5,13.72,13.72,0,0,1,.7-2.3,24.64,24.64,0,0,1,1-2.3,14.3,14.3,0,0,0,.7-1.6c.13-.4.06-.46-.2-.2a20.58,20.58,0,0,0-1.4,2.9,20.09,20.09,0,0,1-.9,2.1A4.63,4.63,0,0,0,87.08,310.05Zm1.2,16c-.27.27,0,.27.8,0,.4-.26.43-.4.1-.4A1.25,1.25,0,0,0,88.28,326.05Zm.6,1.2c.53-.13.73-.27.6-.4a.81.81,0,0,0-.9.2C88.24,327.32,88.34,327.38,88.88,327.25Zm1.8-.6c.26-.27.3-.4.1-.4a1.07,1.07,0,0,0-.7.4c-.14.13-.1.23.1.3S90.54,326.92,90.68,326.65Zm.2-24a.8.8,0,0,0-.5.3c-.2.2-.17.3.1.3a.47.47,0,0,0,.5-.3C91,302.75,91,302.65,90.88,302.65Zm.2,22c.26.14.26.27,0,.4s-.4.1-.4-.1S90.81,324.65,91.08,324.65Zm0-23q-.4.41-.3.6c.06.14.16.07.3-.2a1.8,1.8,0,0,0,.5-1.3C91.51,300.42,91.34,300.72,91.08,301.65Zm3.2,21.8c-.14-.53-.4-.6-.8-.2s-.67.37-.8.3-.34,0-.6.3-.14.47.4,1l1,.4v-.4c.13-.26,0-.4-.4-.4a.8.8,0,0,1-.8-.4c-.14-.13-.1-.13.1,0s.43.07.7-.2h.2l.4.4a.55.55,0,0,0,.8.1C94.74,324.15,94.68,323.85,94.28,323.45Zm-1.8-25.2.2.4a.82.82,0,0,0,.2-.6C92.88,297.79,92.74,297.85,92.48,298.25Zm.6,27.6h.2c0-.26-.14-.33-.4-.2S92.68,325.85,93.08,325.85Zm.6-29.6c.26-.26.3-.4.1-.4s-.37.14-.5.4S93.41,296.52,93.68,296.25Zm.8,28.6a.9.9,0,0,1-.5.5c-.2.07-.1.1.3.1s.56-.16.5-.5S94.61,324.59,94.48,324.85Zm-.6-29.6v.4a.5.5,0,0,0,.3-.6C94.11,294.79,94,294.85,93.88,295.25Zm1-2.4c-.27.67-.17.8.3.4a1.07,1.07,0,0,0,.3-1.4c0-.26,0-.3-.1-.1S95.14,292.32,94.88,292.85Zm1.8-2.8a.36.36,0,0,0-.4-.4c-.27,0-.27.14,0,.4A.24.24,0,0,0,96.68,290.05Zm0-.8c.13,0,.26-.1.4-.3s.06-.3-.2-.3-.4.1-.4.3S96.54,289.25,96.68,289.25Zm.4-1.4c0,.27.1.44.3.5s.3,0,.3-.3a.61.61,0,0,0-.2-.4C97.34,287.52,97.21,287.59,97.08,287.85Zm1.2-2.8q0,.4.3.3c.2-.06.3-.23.3-.5s.13-.36,0-.3A2.83,2.83,0,0,0,98.28,285.05Zm1.2,38.4a5.09,5.09,0,0,1,.9-.6c.46-.26.7-.33.7-.2s-.1.37-.7.7S99.48,323.72,99.48,323.45Zm1.4-43.4c-.14.27-.1.4.1.4s.36-.13.5-.4-.1-.4-.3-.4S100.88,279.79,100.88,280.05Zm.8,42.4a3.28,3.28,0,0,1,.8-.6.57.57,0,0,1,.4-.2c.13,0,.06.14-.2.4a1.27,1.27,0,0,1-.7.6C101.64,322.79,101.54,322.72,101.68,322.45Zm2-2.2c.26-.53.56-.7.9-.5s.16.5-.5.9c-.27.14-.34.27-.2.4s.33.47.2.6-.2.07-.2-.2q-.41-.39-.6-.3c-.14.07-.27,0-.4-.3a.4.4,0,0,1,.1-.3c.06-.06.1,0,.1.1S103.41,320.65,103.68,320.25Zm4.4-2.4a.85.85,0,0,1,.8-.3c.26.07.33.24.2.5s-.14.2-.4.2c-.27-.26-.34-.2-.2.2s.06.47-.2.2-.47-.3-.6-.1a1.73,1.73,0,0,1-1,.5q-.41.4-.3.6c.06.14,0,.2-.3.2s-.4-.1-.4.1.06.3.2.3.13.07,0,.2-.47.2-.6-.2.06-.76,1-1.1,1.33-.63,1.2-.9a.18.18,0,0,1,.2-.2C107.94,318.32,108.08,318.25,108.08,317.85Zm5-4c.4-.26.6-.43.6-.5s-.2,0-.6.3S112.54,314,113.08,313.85Zm4-64.8c-.27.4-.34.6-.2.6s.3-.16.5-.5l.6-1c.2-.33.23-.56.1-.7s0-.36-.1-.3a.79.79,0,0,0-.1.5c-.14.54-.27.54-.4,0s-.47-.66-1-.4-.6.44-.6.5.13,0,.4-.1.5,0,.7.3A1.28,1.28,0,0,1,117.08,249.05Zm-.2,1.2q0-.19-.3,0a.69.69,0,0,0-.3.6c-.14.4-.07.44.2.1A1.55,1.55,0,0,0,116.88,250.25Zm2.2,62c0-.26.1-.4.3-.4s.23.14.1.4C119.48,312.79,119.34,312.79,119.08,312.25Zm23.6-107.8v-.4a.57.57,0,0,0,.4-.2c.13,0,.16.1.1.3A.47.47,0,0,1,142.68,204.45Zm1.8-.2c-.27-.26-.27-.43,0-.5s.33,0,.2.3C144.81,204.45,144.74,204.52,144.48,204.25Zm1-.2c0-.13.13-.26.4-.4s.46-.13.6,0,.06.2-.2.2-.3.14-.1.4S146.14,204.45,145.48,204.05Zm1.8-.2a1.87,1.87,0,0,1-.7.5c-.2.07-.3,0-.3-.1a2.31,2.31,0,0,0,.6-.4,1.55,1.55,0,0,1,.4-.3Q147.48,203.46,147.28,203.85Zm1.8,0c-.8.54-1.27.57-1.4.1s-.07-.7.2-.7.2.14.2.4q-.41.4,0,.3a1.73,1.73,0,0,0,.8-.5c.26-.26.46-.33.6-.2S149.48,203.59,149.08,203.85Zm2.2-.4a6.7,6.7,0,0,0-1.1.5q-.1.11-.3-.3c0-.26.06-.43.2-.5s.26,0,.4.3,0,.2.1.2.1-.06.1-.2c0-.4.26-.6.8-.6s.6,0,.6.1S151.81,203.19,151.28,203.45Zm1.2.2h-.2a.64.64,0,0,0,.4-.6c0-.26.26-.33.8-.2s.6.1.2.3A8.73,8.73,0,0,1,152.48,203.65Zm3.2-.4c-.54.14-.74,0-.6-.4s.3-.5.9-.3S156.48,203,155.68,203.25Zm2,0c-.4,0-.4-.13,0-.4.26,0,.26-.13,0-.4h.6q1.2,0,.9.3c-.2.2-.37.24-.5.1a.25.25,0,0,0-.4,0C158.28,203.12,158.08,203.25,157.68,203.25Zm3.4-.2c-.4,0-.6-.13-.6-.4s.46-.4,1.4-.4,1.43.27,1.1.4a2,2,0,0,1-1.3,0q-1-.39-.3,0C161.84,202.92,161.74,203.05,161.08,203.05Zm2.8,0c-.27.14-.44.1-.5-.1s0-.3.3-.3h1.8a2.26,2.26,0,0,1-1-.4c-.14-.13,1.13-.13,3.8,0,2.93.14,4.33.27,4.2.4s.46.2,2.2.2,2.33.07,2.2.2-1.54.14-4.2,0a16,16,0,0,1-3.3-.1l1.1-.3a12.28,12.28,0,0,1-1.3-.1c-.6-.06-.84,0-.7.3s-.64.34-1.9.2A9,9,0,0,0,163.88,203.05Zm2-.6c-.14.14-.07.2.2.2s.36.14.3,0S166.14,202.45,165.88,202.45Zm1.2.2h.4c.53.14.66.14.4,0A.87.87,0,0,0,167.08,202.65Zm1.2,71.4c.26.14.26.2,0,.2s-.37-.06-.3-.2S168.14,273.92,168.28,274.05Zm3.4-3.4c.26-.26.43-.33.5-.2s-.1.27-.5.4S171.41,270.79,171.68,270.65Zm1.6-1.4a3.28,3.28,0,0,1,.8-.6c.13-.13.23-.2.3-.2s0,.14-.3.4C173.54,269.65,173.28,269.79,173.28,269.25Zm2.4-1.8q.39.41,0,.6c-.27.14-.34.07-.2-.2s-.1-.4-.3-.4-.24.14-.1.4c-.27.27-.47.4-.6.4s-.4.17-.4.1.13-.16.4-.3l.4-.2c-.27,0-.3-.13-.1-.4S175.28,267.19,175.68,267.45Zm-.4,1.8-.5.5.3-.3a.47.47,0,0,1,.3-.5C175.58,268.89,175.54,269,175.28,269.25Zm-.2.8c.26-.4.46-.53.6-.4s0,.34-.4.6S174.81,270.45,175.08,270.05Zm1-3.4a1.09,1.09,0,0,1-.7.4c-.2,0-.17-.13.1-.4a1.53,1.53,0,0,1,.6-.2C176.21,266.45,176.21,266.52,176.08,266.65Zm-.2-63.2h.8c.26.27.1.37-.5.3S175.48,203.59,175.88,203.45Zm2.4,62.6c.26,0,.2.07-.2.2s-.54.34-.4.6-.17.27-.5.4-.37.07-.1-.2.2-.3-.2-.1-.4,0,0-.5.56-.46.5-.2,0,.34.3.2.33-.5.2-.7-.34-.23-.6-.1-.54-.06-.4-.2a1,1,0,0,1,.9-.3c.33.07.43.24.3.5S178.14,266.05,178.28,266.05Zm1-3q.6-.19,0,.3c-.4.34-.54.64-.4.9s.16.2.1.2-.17-.06-.3-.2,0-.16-.1-.1a.4.4,0,0,0-.1.3.72.72,0,0,1-.7.4c-.34,0-.37-.06-.1-.2a.48.48,0,0,0,.5-.4.47.47,0,0,1,.5-.4q.39,0,.3-.3C178.91,263.35,179,263.19,179.28,263.05Zm.8,1.8a18.7,18.7,0,0,1,2.5-2.7c.06.07-.2.44-.8,1.1s-1.34,1.47-2.2,2.4-1.37,1.4-1.5,1.4l.6-.6a7.29,7.29,0,0,0,.7-.8A8.17,8.17,0,0,1,180.08,264.85Zm3.6-6.8c.26-.53.2-.6-.2-.2-.27.14-.2.34.2.6Zm1-1.4c.53-.4.8-.63.8-.7s-.2,0-.6.3-.8.5-.8.7S184.28,257.05,184.68,256.65Zm1.4-1.4c1.06-.8,1.06-.93,0-.4a2.7,2.7,0,0,0-.5.6C185.51,255.59,185.68,255.52,186.08,255.25Zm.8-49.4c0-.26-.2-.4-.6-.4s-.34.14-.2.4h.4l.2.2Zm0,48.4a.82.82,0,0,0,.2-.6c0-.26-.07-.2-.2.2S186.74,254.39,186.88,254.25Zm1.4,1.8.4-.4q-.21-.19-.6.3C187.81,256.29,187.88,256.32,188.28,256.05Zm.4-49.4c-.4-.13-.6-.1-.6.1s.13.3.4.3.4.07.4.2.26.27.8.4a3.84,3.84,0,0,1,.9.8.85.85,0,0,0,.7.4c.66.14.93.27.8.4s.13.34.4.2a.4.4,0,0,1,.6.2,1.26,1.26,0,0,0,.8.6.89.89,0,0,1,.7.4c.2.27.23.47.1.6s0,.17.4.1.53,0,.4.3a1.18,1.18,0,0,0,.2.7c.13.2.33.17.6-.1s.3,0,.5.9.5,1.1.9.7c.13-.26-.2-1-1-2.2s-1.34-1.8-1.6-1.8l-.2-.2-.2-.2c-.27-.4-.54-.53-.8-.4s-.34.14-.2,0,.13-.56-.4-.9a3.05,3.05,0,0,0-1.6-.5.53.53,0,0,1-.4-.2h-.2c0-.26-.14-.33-.4-.2s-.4.14-.4,0-.2-.4-.6-.4A2.12,2.12,0,0,1,188.68,206.65Zm12,22c.13,0,.13-.06,0-.2-.27-.53-.44-.43-.5.3s0,1.1.1,1.1.16-.2.1-.6S200.41,228.65,200.68,228.65Zm-.2-1.4c.13.27.1.47-.1.6s-.17.14.1,0l.6-.6c0-.26-.17-.4-.5-.4S200.21,227,200.48,227.25Zm.2-2.6c-.14,0-.2.1-.2.3s.13.37.4.5v.2c.13,0,.2-.16.2-.5S200.94,224.65,200.68,224.65Zm.6,1.6c-.27-.26-.47-.4-.6-.4s-.14.14,0,.4.06.4.2.4S201.14,226.52,201.28,226.25Z" transform="translate(-72.25 -201.66)"/><path class="a" d="M241.28,267.85c.13-.13.2-.13.2,0a2.77,2.77,0,0,1-.5.7c-.2.2-.37.17-.5-.1s-.37,0-.3.3a1,1,0,0,1-.3.9c-.27.27-.44.4-.5.4s0-.06.1-.2.2-.26-.2,0a1.74,1.74,0,0,0-.5,1,1,1,0,0,1-.5.8c-.27.14-.34.24-.2.3s-.07.24-.6.5-.7.24-.5.3,0,.37-.5.9-.84.64-.5.3.3-.36-.1-.1-.34.27-.2.4-.07.47-.6,1-.74.84-.6.9,0,.17-.4.3c-.14,0-.2,0-.2.1s-.07.1-.2.1v.2a.72.72,0,0,1-.1.8c-.2.27-.37.34-.5.2s-.4,0-.4.4-.14.54-.4.4-.3-.06-.1.2,0,.6-.5,1a33.8,33.8,0,0,0-3.6,3.9q-2.81,3.3-6.4,7.4t-7.1,7.7a24.12,24.12,0,0,1-5.5,4.6,16.11,16.11,0,0,1-3.6.6,8.08,8.08,0,0,1-3.4-.2c-1.34-.66-2-2-2.1-4a29.09,29.09,0,0,1,.8-7.1,65.41,65.41,0,0,1,2.6-8.7q1.69-4.59,3.4-8.4t3.2-6.4a11.36,11.36,0,0,1,1.9-2.8h-.2q-.41,0-3.1,3l-6,6.7q-3.3,3.71-6.5,7a27,27,0,0,1-4.6,4.1,6.5,6.5,0,0,1-4.2.3c-1.74-.33-2.74-1-3-1.9-.27-.66-.5-.9-.7-.7l.1-.1c.26-.26.3-.83.1-1.7s-.17-1.43.1-1.7a.72.72,0,0,0,.4-.7c0-.33-.14-.5-.4-.5s-.27.6-.4,1.8-.2,1.94-.2,2.2,0,.17-.3-.3-.44-.83-.3-1.1a8.37,8.37,0,0,0,.1-3.4c-.2-.4-.17-.46.1-.2.13,0,.2-.2.2-.6a4.65,4.65,0,0,1,.4-2.4c.4-1.2.73-1.86,1-2l.8-.6a.25.25,0,0,0,0-.4q-.21-.6,0-.6c.26-.13.4-.26.4-.4s0-.63.3-1.1.63-.7.9-.7a.25.25,0,0,0,0-.4l.5-1c.2-.4.36-.6.5-.6a.36.36,0,0,1,.4.4c0,.27.13.2.4-.2,0-.26-.07-.4-.2-.4s-.2.07-.2-.2c.13-.53.33-.7.6-.5s.46.1.6-.3.06-.4-.2-.4-.34-.13-.2-.4.26-.33.8-.2a1.17,1.17,0,0,0,1.2-.2l.4-.4-.4.2c-.54.14-.84.07-.9-.2s.1-.53.5-.8.46-.6.2-.6.13-.13,1.2-.4c.13,0,.16,0,.1-.1a.45.45,0,0,0-.3-.1c-.14-.26-.07-.4.2-.4s.56-.13.5-.4.23-.46.9-.6a2.49,2.49,0,0,0,1.4-.6c.53-.4.73-.73.6-1s-.14-.4.4-.4c.26,0,.4-.1.4-.3s-.2-.23-.6-.1-.64.3-.3.1a.85.85,0,0,0,.5-.7c0-.53.13-.53.4,0q0,.21.6,0c.13-.26.06-.43-.2-.5s-.14-.1.4-.1.8-.2.8-.6c.26-.93.66-1.4,1.2-1.4.26,0,.53-.3.8-.9s.53-.9.8-.9.46-.2.6-.6.2-.53.2-.4c.4,0,.93-.36,1.6-1.1a4.13,4.13,0,0,1,3.2-1.1,9.6,9.6,0,0,1,3.2.5,10.37,10.37,0,0,1,2.5,1.3,15.7,15.7,0,0,1,1.7,1.4c.4.4.66.6.8.6s.53-.33,1.2-1l2.3-2.3,2.8-2.8c1-1,1.9-1.83,2.7-2.5a10.47,10.47,0,0,1,2-1.6c.66-.4,1.8-.13,3.4.8.8.54,1.13.94,1,1.2s-.17.47-.1.6a1,1,0,0,1,.1.4c.26.27.3.8.1,1.6a3.65,3.65,0,0,1-.7,1.6h.2c.26-.13.4-.1.4.1s.2.3.6.3.26-.2,0-.6a.81.81,0,0,1-.3-.8c.06-.26.23-.26.5,0s.43.4.1,0-.37-.73-.1-1a.61.61,0,0,1,.4.2c-.27.54-.14.54.4,0s.66.14.4,2a25.48,25.48,0,0,1-1.2,3.2q-.81,1.8-3,5.6-3,5.4-6.3,11.7t-5.9,11.7q-2.61,5.4-4.2,9c-1.07,2.4-1.54,3.67-1.4,3.8s.86-.53,2.2-2l5.1-5.6q3.09-3.39,6.7-7.4t6.7-7.4c2.06-2.26,3.86-4.2,5.4-5.8a16.59,16.59,0,0,1,2.5-2.4,4.19,4.19,0,0,1,1.8,0q.79.21.6.6v.4c.53,0,.66.2.4.6-.27.14-.4.24-.4.3S241,268,241.28,267.85Zm-57,11.4c.4,0,.46-.13.2-.4,0-.26-.07-.23-.2.1S184.14,279.39,184.28,279.25Zm8-14.6c.8-1.2.86-1.46.2-.8a3.51,3.51,0,0,1-1,.4c-.14-.13-.2-.06-.2.2s.13.34.4.2.3-.23.1.1-.44.44-.7.3-.4-.13-.4,0C190.94,265.59,191.48,265.45,192.28,264.65Zm1.2-1.4q.39-.39,0-.6c-.54-.26-.7-.16-.5.3S193.34,263.52,193.48,263.25Zm1-1.6c-.4.4-.67.34-.8-.2,0-.26.13-.33.4-.2S194.48,261.52,194.48,261.65Zm7.8,6.6q3.39-3.6,5-5.2a25.22,25.22,0,0,0,2.2-2.4,4.16,4.16,0,0,0,.6-.9v-.7c-.14-1.33-.44-1.7-.9-1.1a27.21,27.21,0,0,1-3.3,3.1c-.27.27-.34.4-.2.4s-.07.2-.6.6-.8.7-.8.9-.14.3-.4.3-.37.24-.7.7a2.14,2.14,0,0,0-.5,1.1l-.4.4a5,5,0,0,0-1.2,1.2l-1.6,2c-.67.8-1.34,1.67-2,2.6s-1.37,1.87-1.7,2.4a5.42,5.42,0,0,0-.7,1.6l-.2.2c-.54.54-.67.7-.4.5s1-.83,2.1-1.9S199.61,271.05,202.28,268.25Zm7.2,25.2c.13-.93.3-1.4.5-1.4s.16-.2-.1-.6-.24-.3-.3-.1-.24.7-.5,1.5a9.82,9.82,0,0,0-.6,2.4c.26.27.26.3,0,.1s-.54.44-.8,1.9a11.66,11.66,0,0,0-.2,1.5c0,.2.13.17.4-.1a4.38,4.38,0,0,0,.8-2.5c.13-1.26.26-1.83.4-1.7l.2-.2A1.17,1.17,0,0,0,209.48,293.45Zm1.8-5.4c.26.4.36.27.3-.4s0-.93.1-.8.26,0,.4-.3.06-.56-.2-.7c0-.13-.1,0-.3.5s-.4,1-.6,1.5l-.6,1.6a4.43,4.43,0,0,0-.3,1c-.14.27-.14.2,0-.2s.33-.6.6-.6.36-.36.3-1.1S211,287.65,211.28,288.05Zm.8-3c-.27.14-.27.27,0,.4a1.38,1.38,0,0,0,.6.2v-.8c0-.53-.07-.8-.2-.8-.14-.26-.17-.23-.1.1A1,1,0,0,1,212.08,285.05Zm1.2-3c-.4,1.07-.47,1.6-.2,1.6s.3-.4.5-1.2S213.68,281.52,213.28,282.05Zm.6-1.2v.4a.64.64,0,0,0,.4-.6C214.28,280.39,214.14,280.45,213.88,280.85Zm1.6-3.2v.4c.26.4.4.37.4-.1S215.74,277.39,215.48,277.65Zm2-3.2c-.27,0-.44.1-.5.3s0,.24.3.1C217.81,274.59,217.88,274.45,217.48,274.45Zm1.4-3.2c-.27,0-.34.07-.2.2a.53.53,0,0,0,.4.2.18.18,0,0,0,.2-.2C219.28,271.32,219.14,271.25,218.88,271.25Zm9.6-17.2c-.14.14-.07.14.2,0s.36-.23.3-.3S228.74,253.79,228.48,254.05Z" transform="translate(-72.25 -201.66)"/><path class="a" d="M299.08,266.85c.53.27.83.54.9.8s-.1.4-.5.4-.37.1-.31.3,0,.37-.29.5c-.54,0-.81.14-.81.4a12.38,12.38,0,0,1-2.4,2.1l-5.29,4.2q-2.91,2.31-5.3,4a17.22,17.22,0,0,1-2.6,1.7c0-.13,0-.16-.1-.1a.41.41,0,0,0-.11.3,2.74,2.74,0,0,1-.89.9,2.13,2.13,0,0,1-1.11.5c-.26,0-.46.17-.6.5s-.33.37-.59.1c0,.27-.37.54-1.1.8a2.91,2.91,0,0,0-1.5,1c-.4.27-.64.34-.71.2s-.1-.06-.1.2c-.26.27-.4.27-.4,0a.5.5,0,0,0-.79,0q-.41.41-.21.6c0,.14-.16,0-.5-.4s-.43-.26-.29.4c0,.27-.07.34-.21.2a1.77,1.77,0,0,0-.89-.5c-.34-.06-.5,0-.5.3s-.14.3-.4.1-.4-.16-.4.1-.5.3-1.1.1-.9-.16-.9.1c-.41.4-.47.34-.2-.2q-.21-.19-.21,0c-.26.4-.43.44-.5.1s-.23-.36-.5-.1-.86.14-1.79-.4a5.16,5.16,0,0,1-2-1.8,8.64,8.64,0,0,1-1.71-6.2,24.1,24.1,0,0,1,2-7.5,63.62,63.62,0,0,1,4.1-7.8c1.61-2.6,3.21-5,4.81-7.1q-2.61,1.8-7.2,5.7t-9.11,8q-4.5,4.11-11.29,10.5c-.14.67-.31.94-.5.8s-.44-.06-.71.2q0,.21.21,0c.13,0,.19.07.19.2a.93.93,0,0,1-.9.3c-.33-.06-.36,0-.1.3s.1.3-.09.5a1.46,1.46,0,0,1-.7.4,2.58,2.58,0,0,1-.61.1c-.13,0-.13-.06,0-.2s.27-.36,0-.3a.48.48,0,0,0-.39.5c-.27.27-.4.34-.4.2s-.14-.06-.4.2a.63.63,0,0,0,1,.2c.4-.26.26,0-.41.8a5.48,5.48,0,0,1-1.19,1c-.27.14-.14-.06.4-.6s.79-.86.39-1l-.39-.2c-.14,0-.5.37-1.11,1.1s-.83,1-.69.9.13.1,0,.3a5.3,5.3,0,0,1-.5.6l-.5.5c-.14.14-.14.07,0-.2.4-.8.3-.86-.31-.2s-.83,1.07-.69,1.2a.18.18,0,0,1-.2.2c-.27,0-.4.34-.4,1a1.32,1.32,0,0,1-.6,1.3,9,9,0,0,1-2.61.5,13,13,0,0,1-2.69.1,2.93,2.93,0,0,1-1.1-.5c-.27,0-.64-.5-1.1-1.5s-.5-1.56-.11-1.7.47-.3.21-.5-.27-.43,0-.7v.2c0,.4.13.07.4-1s.43-1.5.5-1.3.16.17.29-.1.27-.4,0-.4-.19-.2.21-.6a3.18,3.18,0,0,0,.7-.9c.06-.2,0-.16-.31.1s-.33.27-.19,0,.06-.4.19-.4.5-.46.71-1.4a2.8,2.8,0,0,1,.9-1.8.58.58,0,0,0,.39-.5c0-.2-.13-.16-.39.1s-.27.2,0-.2.46-.73.6-1a1.16,1.16,0,0,0,.4-.8c0-.26.06-.4.2-.4s.46-.2.59-.6a9.55,9.55,0,0,1,.81-1.6c.26-.26.33-.46.19-.6s-.06-.33.21-.6a2.59,2.59,0,0,0,.6-1.2c.13-.53.33-.8.6-.8s.23-.23.3-.7.16-.63.29-.5.34-.26.6-1.2a.54.54,0,0,1,.61-.6h0c-.14-.26,0-.53.39-.8a1.6,1.6,0,0,0,.71-1.2c.06-.53.16-.8.29-.8.67.27.84.24.5-.1s-.36-.43-.1-.3.44-.4.91-1.2l1.5-2.6c.53-.93,1-1.8,1.5-2.6s.69-1.13.69-1,.31-.23.5-1.1.5-1.23.9-1.1.27-.13,0-.4-.13-.2,0-.2.37-.1.31-.3,0-.3.29-.3a.35.35,0,0,0,.4-.4c0-.26.34-.73,1-1.4a2.29,2.29,0,0,0,.91-.6,1.51,1.51,0,0,0,.09-.6q-.39-.79,0-.3c.27.34.34.3.21-.1.13-.26.26-.4.39-.4s.37-.16.31-.5,0-.43.09-.3.24.07.31-.2a2.22,2.22,0,0,1,.9-1q.8-.39,1.2,0h.4c-.14-.26.06-.4.6-.4a1.63,1.63,0,0,1,1.19.4.82.82,0,0,0,.61.2c.26-.13.36-.06.29.2s.1.47.5.6.44.8.1,2a6.07,6.07,0,0,1-.89,2.2c-.27.14-.4.27-.4.4s.06.2.19.2.44-.1.5.1,0,.3-.29.3-.47.3-1,.9a2.6,2.6,0,0,0-.8,1.3,3,3,0,0,1-.5.7c-.2.2-.17.24.09.1s.34-.1.21.1a12.89,12.89,0,0,1-1.21,1.3q-.39.6.21.6h.39a.63.63,0,0,1-.79.2c-.27-.13-.54.14-.81.8a4.55,4.55,0,0,1-.4,1.5,1.06,1.06,0,0,1-.39.4.62.62,0,0,0-.3.3c-.07.14-.24.4-.5.8s-.17.57-.1.5a3,3,0,0,1,.4-.3,2,2,0,0,0,.39-.3c.07-.06,0,0-.29.3,0,.27-.21.54-.6.8a.4.4,0,0,0-.21.6c.14.27.07.27-.19,0-.27,0-.34.07-.21.2s-.06.37-.19.3-.27.1-.41.5c-.13.14-.19.24-.19.3s.13,0,.4-.3.36-.26.29,0-.16.6-.29,1a2.24,2.24,0,0,1-.8.8c-.41.27-.54.4-.41.4s.17.14-.29.4-.57.34-.3.2.26.1,0,.7a2.19,2.19,0,0,1-.81,1.1c-.39.27-.6.5-.6.7s.14.24.41.1c.53-.26.63-.3.3-.1a2.67,2.67,0,0,0-.9,1.5,2.25,2.25,0,0,1-.81,1.2c-.26.14-.33.27-.19.4v.2q-.4,0-.81,1.5c-.26,1-.53,1.44-.79,1.3s-.21-.06-.21.2.1.37-.09.3-.31.1-.31.5a2.18,2.18,0,0,1-.79,1.4c-.27.4-.37.64-.31.7s.37-.16.91-.7.53-.6.4-.6-.07-.13.19-.4a2.38,2.38,0,0,0,.91-1.4c.19-.66.43-1,.69-1a.58.58,0,0,0,.31-.7c-.07-.33,0-.36.3-.1s.26.24,0-.1-.27-.56,0-.7a.57.57,0,0,0,.29-.7c-.06-.33.17-.63.71-.9s.6-.36.2-.3-.41,0,0-.3a2.2,2.2,0,0,0,.8-.9c.26-.46.33-.7.2-.7s-.27-.2,0-.6.53-.53.8-.4.16.1.1-.5,0-.76.29-.5c.14,0,.27-.13.4-.4s0-.3-.29-.1-.17,0,.5-.7,1-1.23.89-1.7,0-.56.31-.3.33.2.19-.2.07-.73.61-1,.53-.53.39-.8a2.41,2.41,0,0,1,.21-.9c.13-.33.26-.43.4-.3.39,0,.46-.13.2-.4,0-.26.13-.33.4-.2s.36.14.29-.4,0-.8.31-.8v-.2a2.25,2.25,0,0,1,.3-1c.2-.4.36-.6.5-.6.26.27.39.1.39-.5s.07-.76.21-.5.43.1.5-.1,0-.3-.31-.3-.09-.16.5-.5.77-.5.5-.5-.36-.3-.29-.5.16-.23.29-.1.44.17.5-.3a1,1,0,0,1,.71-.9c.13,0,.2.1.2.3a4.16,4.16,0,0,1-.5,1.3c-.34.67-.91,1.7-1.7,3.1s-1.87,3.24-3.21,5.5l-5.29,9.2c-1,1.74-1.14,2.3-.4,1.7s2.4-2.2,5-4.8,6.29-6,11.1-10.1l4.59-3.8q3.4-2.79,7-5.5a73.67,73.67,0,0,1,6.5-4.4c1.94-1.13,3-1.36,3.1-.7a5,5,0,0,0,.81.6l1.3.9a3.07,3.07,0,0,1,1,1.2,2.72,2.72,0,0,1-.11,1.9,8.67,8.67,0,0,1-2.39,3.9,11.84,11.84,0,0,0-2.61,3.7,2.37,2.37,0,0,1-.69.8,8.51,8.51,0,0,0-1.5,2.2,3,3,0,0,1-.5.7,2.7,2.7,0,0,0-.5.7,2.28,2.28,0,0,1-.81.8c-.39.27-.53.54-.39.8s.13.7-.4,1.3a14.42,14.42,0,0,0-1.21,1.5c-.26.54-.53,1.07-.79,1.6a12.41,12.41,0,0,1-.81,1.4l-1.79,3.6c-.4.8-.71,1.4-.9,1.8a2.31,2.31,0,0,0-.31.8.56.56,0,0,1-.19.4.5.5,0,0,0,0,.8c.26.27.26.4,0,.4s-.47.2-.6.6-.14.6,0,.6.23.5-.11,1.1-.36.84-.1.7.24,0-.09.5-.37.77-.1.9.19.07.19.2q-.39.21,0,1.2,1,1.41,4.81-.3a56.71,56.71,0,0,0,8.4-4.8q4.59-3.09,9.1-6.5l6.9-5.2Zm-61.81,21.6c-.39.14-.23-.16.5-.9s1.17-1.1,1.31-1.1-.07.27-.6.8Zm3.4-4.6q.41-.39.21,0a2.47,2.47,0,0,1-.4.6c-.27.14-.37.14-.31,0A3.45,3.45,0,0,1,240.67,283.85Zm2-1.4.21-.4c0-.26-.07-.23-.21.1S242.54,282.59,242.67,282.45Zm.81-10.6c-.14.27-.1.4.1.4s.3-.13.3-.4C244.14,271.32,244,271.32,243.48,271.85Zm1.6-2.8c-.14.27-.07.34.19.2s.37-.43.31-.5S245.34,268.79,245.08,269.05Zm2.19-3.2a1,1,0,0,0-.5.5c-.06.2,0,.24.31.1a.93.93,0,0,0,.5-.5C247.64,265.75,247.54,265.72,247.27,265.85Zm3.21-3.8c-.14.27-.1.4.1.4a.68.68,0,0,0,.5-.2c0-.13-.1-.26-.31-.4S250.48,261.79,250.48,262.05Zm5.4-8.8c-.54,0-.54-.13,0-.4.26-.53.5-.56.7-.1S256.54,253.39,255.88,253.25Z" transform="translate(-72.25 -201.66)"/><path class="a" d="M329.27,269.25a1.36,1.36,0,0,1-.29.8,16.55,16.55,0,0,1-1.21,1.3q-.9.9-2.79,2.7l-5.31,5q-4.4,4-7.19,6.4a52.66,52.66,0,0,1-4.9,3.8,21.66,21.66,0,0,1-3.81,2.1,18.6,18.6,0,0,1-3.9,1.1,6.8,6.8,0,0,1-3.6.2c-.53-.13-1-.26-1.4-.4a3.3,3.3,0,0,1-1.39-1.6,4.5,4.5,0,0,1-.61-1.8.61.61,0,0,1,.2-.4v-.2q-.19-.39,0-.6c.14-.13,0-.06-.4.2-.13,0-.06-.13.2-.4s.17-.23.11-.3-.17,0-.31.1-.23,0,.1-.4.37-.73.1-1-.06-.2.2-.2.27-.2,0-.6a10.5,10.5,0,0,1,.5-2.3c.33-1.13.64-1.7.91-1.7v-.4c-.27-.26-.27-.6,0-1a7.89,7.89,0,0,0,.79-1.8,8.24,8.24,0,0,1,.21-1.1,3.24,3.24,0,0,1-.21.6,5.21,5.21,0,0,0-.29,1.1c-.08.4-.17.6-.31.6s-.53.54-.8,1.6c-.39,1.34-.66,1.9-.8,1.7s-.13-.1,0,.3a4.08,4.08,0,0,1-.3,2.2,9.76,9.76,0,0,0-.29,3.8c.13.94.13,1.47,0,1.6s-.27,0-.41-.3-.3-.83-.5-1.5a6.26,6.26,0,0,1-.3-1.8,15.75,15.75,0,0,1,.5-6.2,46.42,46.42,0,0,1,2.4-6.8c1-2.26,2.14-4.53,3.4-6.8s2.44-4.26,3.51-6q2-3,2.59-3.7c.41-.46.67-.43.81.1.13.14.16.2.1.2s-.17-.06-.31-.2-.33-.2-.19.2-.07.54-.6.4c-.27,0-.27.07,0,.2s.19.7-.21,1.3-.46.77-.19.5a3.52,3.52,0,0,1,1.4-1.1c.66-.33.73-.3.19.1s-.46.54-.19.8.19.34-.21.2a.47.47,0,0,0-.5.3c-.06.2,0,.3.1.3s.61-.23,1-.7.54-.83.4-1.1a1.43,1.43,0,0,1,.5-.9c.34-.33.5-.56.5-.7s.14-.33.4-.6a6.36,6.36,0,0,0,.7-.8c.21-.26.24-.33.11-.2s-.31,0-.11-.3.37-.5.5-.5.27-.1.4-.7a2.76,2.76,0,0,1,.6-1.3.55.55,0,0,0,.21-.4c-.27,0-.14-.13.4-.4.39-.4.5-.53.29-.4s-.36.07-.5-.2-.1-.43.1-.1.64,0,1.3-.9q.4-.6-.09-.3c-.34.2-.24.1.29-.3l.21-.4c.13,0,.26-.2.4-.6s.36-.36.29-.3a.86.86,0,0,1-.29.2q-.21.1-.21,0c0-.06.14-.23.4-.5a4.24,4.24,0,0,0,.6-1.4q.21-.79.6-.6c.14.14.34-.13.61-.8.13-.26.43-.33.89-.2a1,1,0,0,0,1.11-.2c.26-.26.93-.06,2,.6a11.05,11.05,0,0,1,2.6,2.2,2,2,0,0,1,.4,1.8l-.61,1.2c-.26,0-.53.5-.79,1.5a6.63,6.63,0,0,1-1.21,2.5c-.39.27-.56.47-.5.6s0,.34-.29.6a2.51,2.51,0,0,0-.6,1.2,4.2,4.2,0,0,1-1.21,1.8c-.4.67-.53,1-.4,1s-.13.4-.79,1.2a15.67,15.67,0,0,0-1.6,2c-.67.94-1.31,1.9-1.9,2.9s-1.14,1.9-1.6,2.7-.77,1.2-.9,1.2-.34.14-.21.4,0,.54-.39.8a1.16,1.16,0,0,0-.4.8,1.14,1.14,0,0,1-.41.8,28.22,28.22,0,0,0-1.4,2.8c-.66,1.47-1.13,2.47-1.4,3l-.39.8.19.2a6.48,6.48,0,0,0-.69,1.4c-.34.8-.67,1.7-1,2.7a23.84,23.84,0,0,0-.81,3,5.59,5.59,0,0,0-.09,2.3c.13.27.79,0,2-.9s2.73-2.1,4.59-3.7,3.87-3.4,6-5.4l6.1-5.7c1.94-1.8,3.6-3.33,5-4.6s2.24-2,2.5-2.3.77-.06,1.5.6A1.93,1.93,0,0,1,329.27,269.25Zm-33.2,7v-.8c0-.26-.06-.13-.2.4S295.81,276.52,296.07,276.25Zm4.6-9.4.2-.2c.14,0,.21-.06.21-.2s-.31,0-.5.3S300.41,267.12,300.67,266.85Zm.6-3.8c0-.26-.06-.36-.19-.3s-.21.24-.21.5C300.87,263.92,301,263.85,301.27,263.05Zm1.21.8c.26-.26.19-.33-.21-.2a.86.86,0,0,0-.69.4c-.21.27-.17.4.09.4s.34,0,.2-.1S301.94,264.12,302.48,263.85Zm.39-1.4a2.07,2.07,0,0,1,.61-1.1c.39-.46.46-.63.19-.5s-.66.54-.8,1.2-.33.87-.6.6h-.19a.47.47,0,0,0,.59.3C302.94,262.89,303,262.72,302.87,262.45Zm0-2q0-.19-.39,0c-.27.14-.34.27-.21.4s.27.3.4.1A.9.9,0,0,0,302.87,260.45Zm2-5.2c-.13.27-.2.37-.2.3s.07-.16.2-.3c.27-.4.4-.56.4-.5S305.14,255,304.87,255.25Zm.4,2.4c-.53.8-.53.67,0-.4.27-.66.44-1,.5-1s.17.2.31.6,0,.7-.1.5S305.67,257.25,305.27,257.65Zm.4-3.8c-.13,0-.16-.06-.09-.2s.23-.2.5-.2.29.07.09.2A.87.87,0,0,1,305.67,253.85Zm1-1.2a.61.61,0,0,1,.2-.4.36.36,0,0,1,.4-.4c.14,0,.1.14-.1.4S306.81,252.65,306.67,252.65Zm14.81-17.4c-.27.14-.5-.13-.71-.8a6.58,6.58,0,0,1-.29-1.8c.39-2.26,2-4.53,4.79-6.8a6.5,6.5,0,0,1,2.31-1.3,4.29,4.29,0,0,1,2.29.9,8.93,8.93,0,0,1,2.3,1.7c.74.74,1,1.3.91,1.7a7.24,7.24,0,0,1-.5,1.6c-.21.4-.44.87-.71,1.4-.66.67-1.06,1-1.2,1s-.33.1-.19.3.06.3-.21.3-.36-.1-.29.1-.11.44-.5.7l-.4.4c.26-.26.4-.46.4-.6s-.14-.13-.4,0-.34.4-.21.8c-.26-.26-.76-.2-1.5.2s-1.1.67-1.1.8c-.26.14-.43.17-.5.1s-.43,0-1.1.3-.93.27-.8,0-.13-.33-.79-.2-.87-.13-1-.4A.66.66,0,0,0,321.48,235.25Zm6,.4a2,2,0,0,1-1.11.4C326,236.05,326.41,235.92,327.48,235.65Zm1.19-2c-.53.27-.76.44-.69.5s.36,0,.89-.3C329.14,233.59,329.08,233.52,328.67,233.65Z" transform="translate(-72.25 -201.66)"/><path class="a" d="M381.17,277.85c-.07-.53-.1-.53-.1,0s-.33.9-1,1.1a11.9,11.9,0,0,0-2.6,1.3c-.53.27-.77.24-.7-.1s0-.36-.3-.1-.27.4,0,.4.33.1.2.3a.67.67,0,0,1-.6.3,2.7,2.7,0,0,0-1.2.6c-.8.54-1.07.54-.8,0,0-.13.07-.16.2-.1s.47-.1,1-.5c.8-.66.93-.86.4-.6s-.73.2-.6-.2.3-.36.1-.3a.47.47,0,0,0-.3.5c.13.27,0,.5-.4.7a.79.79,0,0,1-1-.1c-.27-.26-.53-.13-.8.4a2.24,2.24,0,0,1-.5.9q-.3.3-.3-.3c.13-.13.2-.23.2-.3s-.07,0-.2.1-.43.34-.5.2-.23-.06-.5.2-.13.3,0,.1.33-.16.6.1a.6.6,0,0,0,.9,0,2.41,2.41,0,0,0,.7-.8c-.13-.26-.07-.4.2-.4.67.27.57.7-.3,1.3s-1.43.77-1.7.5-.3-.4-.5-.4-.3.14-.3.4-.13.14-.4,0a.56.56,0,0,0-.8.4q-.19.6-.6.6l.2-.6c.13-.13.17-.23.1-.3s-.17,0-.3.3c-.4.27-.5.5-.3.7s.5.17.9-.1c.4,0,.6-.13.6-.4s.13-.36.8-.3.67.24,0,.5a18,18,0,0,0-2.2,1.1c-.8.47-1.07.37-.8-.3v-.1c0,.2.13.3.4.3v-.2c.27,0,.27-.13,0-.4a.4.4,0,0,0-.6-.2c-.27.14-.4.47-.4,1s-.33.64-.6.7-.27,0,0-.1.13-.33,0-.6-.27-.26-.4,0-.4.54-1.2.8-1.07.47-.8.6.63.14,1.1-.4.57-.46.3.2c-.27.4.6,1,2.6,1.8s4.73,1.84,8.2,3.1,7.5,2.9,12.1,4.9a123.89,123.89,0,0,1,14.5,7.6,28.44,28.44,0,0,1,5.9,4.3,5.72,5.72,0,0,1,1.3,3.9,13.5,13.5,0,0,1-.6,4.1c-.4,1.27-.73,1.77-1,1.5-.27,0-.4.07-.4.2a1.31,1.31,0,0,1,0,1.4c-.27.4-.4.27-.4-.4a8.23,8.23,0,0,0-1-2.1q-.8-1.29-1.2-.9c-.13,0-.13-.06,0-.2s0-.4-.4-.4-.73-.13-.6-.4.4-.33.8-.2.6.2.2-.2l-.4-.4q-.6.21-.6-.3c0-.33-.13-.43-.4-.3s-.13.34,0,.6.33.47.2.6-.33.14-.6,0c-.53-.26-.57-.66-.1-1.2s.43-.66-.1-.4c-.27,0-.33-.06-.2-.2s.07-.26-.2-.4a.87.87,0,0,0-.8,0c-.13.14-.2,0-.2-.4s-.13-.46-.4-.2-.4.1-.4-.1-.13-.36-.4-.5a2.1,2.1,0,0,1-1-.8q-.19-.39-.6,0c-.27,0-.4-.06-.4-.2s-.2-.3-.6-.5a1.53,1.53,0,0,0-1.2-.1c-.27,0-.3-.06-.1-.2s0-.33-.7-.6-.83-.53-.9-.8-.1-.26-.1,0-.27.4-.4.4-.13-.06,0-.2.07-.3-.2-.1-.4.17-.4-.1-.13-.46-.4-.2a.18.18,0,0,1-.2-.2c.13-.26,0-.33-.4-.2s-.6.07-.6-.2-.17-.4-.5-.4-.43-.13-.3-.4-.07-.13-.2,0l-.2.2q0-.39-1.2-.9c-.8-.33-1.33-.36-1.6-.1-.53.27-.63.2-.3-.2s.3-.53-.1-.4c0,.14,0,.2-.1.2s-.1-.06-.1-.2-.13-.2-.4-.2c-.4.27-.47.3-.2.1s.27-.43,0-.7a.59.59,0,0,0-.4.2c-.13.27-.2.27-.2,0s-.3-.3-.5-.1-.3.17-.3-.1-.13-.26-.8,0-.73.2-.2-.2.47-.53.2-.4a.64.64,0,0,1-.8-.2.93.93,0,0,0-.5-.5q-.3-.09-.3.3c.13.14.17.2.1.2s-.17-.06-.3-.2a2.2,2.2,0,0,0-.9-.8c-.47-.26-.63-.26-.5,0s0,.27-.3.4-.37.07-.1-.2.07-.73-1-1c-.4,0-.57-.06-.5-.2s0-.2-.3-.2-.47,0-.6-.3-.2-.36-.2-.1-.27.37-.4-.1-.27-.5-.4-.1-.23.4-.3,0-.23-.53-.5-.4-.83-.1-2.1-.7-2-.83-2.3-.7-.47.07-.2-.2.13-.33-.4-.2-.63.07-.3-.2,0-.4-1.1-.4c-.27,0-.37-.06-.3-.2s0-.2-.3-.2a2,2,0,0,1-1.1.1q-.5-.09-.3-.3c.27-.26.13-.4-.4-.4s-.6-.1-.6-.3-.13-.23-.4-.1-.57.2-.9-.2-.63-.46-.9-.2c-.13-.26-.3-.4-.5-.4s-.23.14-.1.4.17.2.1.2-.17-.13-.3-.4-1.27-.86-3-1.4-2.73-.73-3-.6a.18.18,0,0,1-.2-.2c.27-.26-.53-.6-2.4-1s-3.47-.8-4.8-1.2q-.6-.39-.9,0a17.5,17.5,0,0,0-1.1,2l-5.9,11.4q-2.89,5.61-5.4,10.2t-4.3,7.7a39.17,39.17,0,0,1-2.6,4.1,8.1,8.1,0,0,1-1.1,1.4c-.07,0,0-.33.1-1s.1-1.2.3-1.2.17-.13-.1-.4c-.27,0-.13-.13.4-.4.13-.13.13-.2,0-.2s-.4-.16-.4-.5.07-.43.2-.3.43,0,.5-.3a9.81,9.81,0,0,1,.5-1.5c0-.66-.07-.93-.2-.8s-.4.47-.8,1.4a6.66,6.66,0,0,0-.6,1.8v.6c-.4.14-.67.54-.8,1.2a1.52,1.52,0,0,0,.2,1.4c.13.27.17.43.1.5a6.25,6.25,0,0,1-1.1.5,5.26,5.26,0,0,1-4,.4,5.56,5.56,0,0,0-.6-.5c-.27-.2-.33-1.43-.2-3.7a19,19,0,0,1,1.3-5.9c.87-2.46,1.87-5.1,3-7.9s2.4-5.63,3.8-8.5,2.6-5.4,3.6-7.6,1.8-3.93,2.4-5.2.7-1.76.3-1.5-.73.27-1,0a4.09,4.09,0,0,0-1.9-.3,1.51,1.51,0,0,1-1.3-.3c-.27-.26-.5-.26-.7,0s-.37.27-.5,0-.43-.2-.9.2-.57.34-.3-.2.3-.66.1-.8-.23-.06-.1.2a.67.67,0,0,1-.3.6c-.2.14-.23,0-.1-.4a.47.47,0,0,0-.3-.5c-.2-.06-.23,0-.1.3a.63.63,0,0,1-.4.6c-.27.14-.33.14-.2,0,.27-.66.3-1,.1-1s-.3.14-.3.4a.63.63,0,0,1-.4.6c-.27.14-.27.07,0-.2s.23-.33-.1-.2-.57.07-.7-.2-.23-.4-.3-.4,0,.07.1.2,0,.4-.5.4-.77-.13-.9-.4-.37-.5-1.1-.7-1.23-.16-1.5.1c-.53.27-.6.4-.2.4s.33,0,.2.1-.33,0-.6-.3a3.24,3.24,0,0,0-1.2-.5q-.6-.09-.6.3c0,.14-.47.2-1.4.2-.4.14-.53.3-.4.5s.07.3-.2.3-.67-.43-.8-1.3a2.74,2.74,0,0,1,.2-1.9c.27-.4.53-.6.8-.6s.57-.1.5-.3.3-.23,1.1-.1,1-.06,1-.2q.4-.8,1.2,0c.53.27.67.27.4,0,0-.26.07-.4.2-.4s.27.14.4.4q.6.4,1.8-.3c.8-.46,1.07-.56.8-.3s.27.24,1.2.3a2.44,2.44,0,0,0,1.8-.3c.27-.13.33-.13.2,0s-.13.4,0,.4.33-.13.6-.4.23-.16.3-.1,0,.24-.1.5c-.4.67-.27.8.4.4s2.13-.6,4.4-.6a.18.18,0,0,0,.2-.2q-.19-.39.3-.3a.94.94,0,0,0,.9-.3c.13-.13.2-.13.2,0s.33.2,1.4.2a5.68,5.68,0,0,0,2-.2q3.6-7.59,5.6-12.7t3.6-10.5a26.87,26.87,0,0,0,1.4-8.8,13.19,13.19,0,0,0-2.3-7.3,29,29,0,0,0-4.7-5.1q-2.59-2.19-5-3.9a7.48,7.48,0,0,1-3-3.5q-1.39-4,3.3-8.3a50.63,50.63,0,0,1,13-8.1,129.19,129.19,0,0,1,19.1-6.8,146.09,146.09,0,0,1,21.6-4.3,112.87,112.87,0,0,1,20.4-.7q9.6.6,15.6,4a25.09,25.09,0,0,1,5.7,4.7q2.89,3.1,3.3,5.3a23.3,23.3,0,0,1-1.1,14.7,48.34,48.34,0,0,1-9.5,13.7,115.5,115.5,0,0,1-14.7,13.1q-8.1,6.11-15.1,10.6t-16.6,9.7C381.6,278.32,381.24,278.39,381.17,277.85Zm-58.7,9c.13-.53.47-.4,1,.4h-.4C322.67,287.25,322.47,287.12,322.47,286.85Zm2.8,0h.4c.13.14,0,.2-.3.2S325,287,325.27,286.85Zm9.4,28.8h.1c-.2,0-.23-.13-.1-.4a.25.25,0,0,0,0-.4c-.13-.13-.33.2-.6,1l-.4,1c.13,0,.2,0,.2.1s-.07.1-.2.1a.82.82,0,0,0-.3.8c.07.27,0,.4-.3.4l-.2.2-.4.8c-.53,1.07-.73,1.6-.6,1.6a1.25,1.25,0,0,0,.6-.6,1.34,1.34,0,0,1,.6-.6.63.63,0,0,0,.4-.6c0-.26-.13-.26-.4,0s-.3,0-.1-.3.37-.43.5-.3a.47.47,0,0,0,.5-.4c.07-.26,0-.4-.1-.4s-.17-.2.3-.6.57-.53.3-.4-.37.17-.3-.3S334.4,315.65,334.67,315.65Zm.6-1.6a1.18,1.18,0,0,1,.6-1c.4-.26.47-.26.2,0s-.37,0-.3-.4,0-.26-.3.4-.53,1.34-.4,1.6S335.27,314.72,335.27,314.05Zm1-32c-.13.27-.3.4-.5.4s-.23-.13-.1-.4a1.67,1.67,0,0,1,.7-.2C336.57,281.85,336.54,281.92,336.27,282.05Zm-.2,29.6c0,.27.07.34.2.2a.45.45,0,0,0,.1-.5Q336.27,311,336.07,311.65Zm1-1a2,2,0,0,1,.4-.8q.4-.6,0-.6l-.6,1c-.27.54-.3.77-.1.7S337.07,310.79,337.07,310.65Zm2-27.6c.93-.26.93-.4,0-.4a2.77,2.77,0,0,0-1.8.4c-.27.27-.1.37.5.3A3.82,3.82,0,0,0,339.07,283.05Zm-1.4,25.8c.27.27.4.27.4,0v-.6a.25.25,0,0,0-.4,0Q337.48,308.46,337.67,308.85Zm2.8-5.4c.13,0,.2-.2.2-.6v-.4c-.13,0-.27.14-.4.4A.39.39,0,0,0,340.47,303.45Zm0-20.2c-.13.27-.1.4.1.4s.3-.06.3-.2C340.87,283.05,340.74,283,340.47,283.25Zm28-11.2q.4-.39,7.2-3.8a183.54,183.54,0,0,0,16.2-9.4q4.61-3,10.7-7.2t11.9-9a117.89,117.89,0,0,0,10.7-10,42.74,42.74,0,0,0,7.3-10,19.41,19.41,0,0,0,1.5-5.1,5,5,0,0,0-.7-3.7,10.1,10.1,0,0,0-1.8-2.1c-.8-.73-1.33-1-1.6-.9s-.23.2-.3.2,0-.06.1-.2-.13-.36-.8-.7a4,4,0,0,0-1.4-.5c-.13.27-.2.27-.2,0s-.2-.33-.6-.2c-.67.14-.8.1-.4-.1s.47-.3.2-.3q-1.61-.2-1.8,0c-.13.14-.2.14-.2,0s.07-.33-.2-.2-.4.07-.4-.2-.2-.36-1-.3-1.13,0-1-.3.17-.26.1,0-.23.34-.5.2-.17,0-.1-.1a.26.26,0,0,0,.1-.2c0-.06-.07-.1-.2-.1a6.17,6.17,0,0,0-1.2.4c-.53.27-.8.37-.8.3a2,2,0,0,0-.2-.5c.27-.4.13-.6-.4-.6-.13,0-1.87-.16-5.2-.5a73,73,0,0,0-13.4.3c-2,0-2.93.07-2.8.2s-.17.34-.5.2a4.38,4.38,0,0,0-2.1.2,4.56,4.56,0,0,1-2.2.2c-.27-.13-.33-.06-.2.2s0,.47-.7.2-1-.26-.9,0-.37.47-1.1.2-1-.26-.9,0,.1.2-.1.2a2.8,2.8,0,0,1-.7-.1,3.3,3.3,0,0,0-.6-.1c-.13,0-.13.14,0,.4.4.4.27.47-.4.2s-.93-.26-.8,0,.07.37-.2.3a6.1,6.1,0,0,1-.7-.2,2.73,2.73,0,0,1-.5-.2c-.13-.06-.07,0,.2.3s.33.4.2.4a2.6,2.6,0,0,1-.6-.1,6.1,6.1,0,0,1-.7-.2q-.3-.09-.3.3c.27.27.23.34-.1.2s-.57-.06-.7.2a.65.65,0,0,1-.5.2c-.2,0-.17-.13.1-.4s-.1-.2-.7.2-.9.47-.9.2-.33-.06-.6.2a.89.89,0,0,1-1,.2c-.27-.26-.37-.3-.3-.1s-.57.44-1.9.7-3.33.74-5.6,1.4-3.73,1.14-4.4,1.4-.8.3-.8.5-.13.17-.4-.1-.4-.06-.4.2-.07.34-.2.2-.4-.13-.4,0-.27.27-.8.4a1.67,1.67,0,0,0-1.2.4c-.27.27-.4.34-.4.2s-.23-.23-.3.1-.23.44-.5.3-.3-.26-.5,0a9.66,9.66,0,0,1-2.9,1.4l-2.7,1.1a6.94,6.94,0,0,0-1,.5,2.11,2.11,0,0,1-.6.3c-.2.07-.7.3-1.5.7a6.94,6.94,0,0,0-1.5.9.83.83,0,0,0-.3.5h-.4a3.64,3.64,0,0,0-1.1.6c-.6.4-1.23.84-1.9,1.3s-1.27.9-1.8,1.3-.8.54-.8.4-.2-.1-.2.1a5.36,5.36,0,0,1-1.2,1.7c-1.33,1.47-1.9,2.47-1.7,3a4.38,4.38,0,0,0,1.9,1.8q4,3.4,6.8,6a19.77,19.77,0,0,1,4.2,5.3,14.67,14.67,0,0,1,1.6,5.9,25.5,25.5,0,0,1-1,7.8q-.8,3.4-1.2,4.5a6.13,6.13,0,0,1-.5,1.2c-.07.07-.1-.06-.1-.4s-.07-.43-.2-.3c-.4.27-.53.47-.4.6s.07.2-.2.2-.37.17-.3.5a.93.93,0,0,1-.3.9,5.76,5.76,0,0,0-.9,2.1,11.43,11.43,0,0,1-1.1,2.7,8.26,8.26,0,0,0-.4,1.1,2.61,2.61,0,0,1-.4.7c-.4.54-.37.57.1.1s.7-.83.7-1.1a8.91,8.91,0,0,1,1.8-2.9c.8-.86.87-1.36.2-1.5-.27,0-.27-.06,0-.2.53,0,.8-.13.8-.4s0-.5-.5-.3-.5.1-.1-.3.8-.5.8-.3.13.14.4-.2.9-1.26,1.9-2.8,2.77-4.3,5.3-8.3c.8-1.46,1.33-2.06,1.6-1.8.27,0,.33-.13.2-.4s0-.6.4-1,.73-.53,1-.4.33-.13.2-.4,0-.6.4-1c.13-.13.23-.2.3-.2s0,.07-.1.2a2,2,0,0,0-.2.5q0,.1.6-.9c.53-.53.67-.8.4-.8l.4-.4c.53-.4.6-.46.2-.2s-.27.07.4-.6.83-1,.5-1-.23-.2.3-.6,1-.76.9-1.1a.57.57,0,0,1,.3-.7c.27-.13.47-.5.6-1.1s.07-.83-.2-.7.4-.9,1.6-2.7,2.53-3.93,4-6.4,2.93-4.86,4.4-7.2,2.47-4,3-4.9c.93-1.73,1.6-2.2,2-1.4.27.54.37.6.3.2s0-.6.3-.6.23.34-.1,1-.17,1.14.5,1.4c.27.14.33.27.2.4s-.37.1-.3.3.17.24.3.1.37,0,.3.5a1.08,1.08,0,0,1-.5.9c-.53.27-.47.4.2.4s.87-.2.6-.6-.3-.36-.1-.3a1.72,1.72,0,0,0,1.1-.3c.13-.26.13-.4,0-.4s-.13.07,0-.2q1-.8,2.4.6a4.17,4.17,0,0,1,.6,4.2,35.92,35.92,0,0,1-3.1,6.4q-2.51,4.41-5.8,9.9t-7.1,11.5q-3.79,6-6.9,11.1t-5.3,8.6a36.82,36.82,0,0,0-2.4,4.1.18.18,0,0,0,.2.2,4.35,4.35,0,0,0,1.1-.4c.6-.26,1.57-.76,2.9-1.5S366.07,273.25,368.47,272.05Zm-26.6,28.2c.13,0,.2-.13.2-.4s-.23-.23-.3.1S341.74,300.39,341.87,300.25Zm10.6-38.6c0,.14.13.24.4.3s.4,0,.4-.3,0-.36-.3-.3S352.47,261.52,352.47,261.65Zm6.4,6.4c-.13,0-.1-.1.1-.3l-.1.1c-.4.54-.57.84-.5.9S358.6,268.59,358.87,268.05Zm2.8-4.8c-.13-.26-.27-.36-.4-.3s-.07.17.2.3.43.4.5.4S361.94,263.52,361.67,263.25Zm.6-1.2c-.27.4-.2.47.2.2s.57-.46.5-.6S362.67,261.65,362.27,262.05Zm.6-12.2c.27-.26.4-.43.4-.5s-.2,0-.6.3C362.54,249.79,362.6,249.85,362.87,249.85Zm.8,30.3c-.27-.06-.4,0-.4.3s-.13.24-.4.3-.27.1,0,.1.4-.06.4-.2h.2C363.87,280.39,363.94,280.22,363.67,280.15Zm.8-21.1c-.27,0-.2-.2.2-.6.67-.8.8-1.1.4-.9s-.6.44-.6.7a2,2,0,0,1-.4.8c-.27.4-.2.47.2.2.27,0,.4,0,.4-.1S364.6,259.05,364.47,259.05Zm2.8,19.8a.4.4,0,0,0,.3-.1c.07-.06,0-.1-.1-.1s-.43-.16-.9-.1-.7.24-.7.5a.18.18,0,0,0,.2.2.78.78,0,0,0,.6-.2A.82.82,0,0,1,367.27,278.85Zm.2-25.6c.13.27,0,.47-.4.6s-.47.4-.2.8c0,.4,0,.44.1.1a3.14,3.14,0,0,1,.9-1.3c.53-.4.6-.53.2-.4s-.33-.06.2-.6.67-.66.4-.8c-.4-.4-.47-.33-.2.2a.85.85,0,0,1-.5.7A.86.86,0,0,0,367.47,253.25Zm1.2,45c.27.27.53.2.8-.2s.33-.33.2.2-.67.6-1.6.2c-.67-.4-1-.66-1-.8h0c.27.4.47.47.6.2s.1-.06.3.2.3.27.3,0A.59.59,0,0,1,368.67,298.25Zm-.4-20.2.4-.2v-.2c-.13-.13-.3,0-.5.3S368,278.32,368.27,278.05Zm2-.8c.8-.66.8-.8,0-.4a3.37,3.37,0,0,0-1.4,1c0,.14,0,.2.1.2s.1-.06.1-.2c.27-.26.43-.33.5-.2S369.87,277.65,370.27,277.25Zm-.6-26.8-.2-.2h-.4c0,.27.1.4.3.4S369.67,250.59,369.67,250.45Zm-.4-10.4.2-.2v-.2c-.13-.26-.23-.23-.3.1S369.14,240.19,369.27,240.05Zm32.4,72.6c0,.27.1.44.3.5s.17.17-.1.3-.53-.2-.8-.6-.4-.53-.4-.4-.53-.06-1.6-.6l-4.6-2.3q-3-1.5-7.2-3.3t-9.4-3.8a16,16,0,0,1-3.4-1.6q-.41-.39-.6,0c0,.14-.1.07-.3-.2s-.3-.33-.3-.2h-.2a5.7,5.7,0,0,0-1.6-.9c-.8-.33-1.27-.43-1.4-.3s-.4.2-.4-.2q.4-.39,1.2,0a2,2,0,0,0,1.4.3c.53-.06.73,0,.6.1s.2.3.6.5a11.64,11.64,0,0,0,1.5.6,8.46,8.46,0,0,0,1.7.4c.53.07.87.1,1,.1s.33.14.2.4,0,.34.3.2.37-.06.1.2c0,.27.17.34.5.2s.43-.06.3.2.17.3.5.1.5-.16.5.1.27.3.8.5a1.54,1.54,0,0,0,1.2.1.18.18,0,0,1,.2.2c0,.27.5.6,1.5,1s1.63.54,1.9.4.4.07.4.2.07.4.2.4a3.74,3.74,0,0,1,1,.4c.67.4,1.13.54,1.4.4s.33-.06.2.2.13.2.8.2v.2a7.58,7.58,0,0,0,2.1,1.1,8.19,8.19,0,0,1,2.1,1.1c.53.27.83.34.9.2s.23-.06.5.2c0,.14.33.34,1,.6a1.13,1.13,0,0,0,1.1.2c.33-.13.43,0,.3.4s.33.67,1,.4a.45.45,0,0,1,.3.1c.07.07,0,.1-.1.1-.13.27.13.44.8.5a1.8,1.8,0,0,1,1.4.7c.13.4.33.47.6.2Zm-30.6-65a1.16,1.16,0,0,0-.4.8c0,.27-.13.27-.4,0-.13,0-.27.27-.4.8s-.13.8,0,.8.4-.26.4-.4v-.2a.69.69,0,0,1,.3-.6,2.94,2.94,0,0,0,.7-.8C371.27,247.65,371.2,247.52,371.07,247.65Zm.6-1c-.27-.26-.47-.4-.6-.4s-.07.14.2.4.47.4.6.4S371.94,246.92,371.67,246.65Zm2.4,29a.25.25,0,0,0,0-.4,1.46,1.46,0,0,0-1.2.2c-.53.27-.8.54-.8.8s-.23.37-.3-.1-.23-.36-.5.3-.13.94.4.4c.4-.26.6-.53.6-.8s.13-.2.4.2v.2c.27-.13.4-.46.4-1,.13-.13.27-.06.4.2S373.8,275.92,374.07,275.65Zm-1-31.4c-.93.4-1.27.87-1,1.4.13.14.33.07.6-.2s.2-.3-.2-.1-.33.1.2-.3c.27,0,.53-.26.8-.8C373.6,244,373.47,244,373.07,244.25Zm1.2-1c0-.66-.33-.86-1-.6-.4.4-.37.7.1.9S374.14,243.65,374.27,243.25Zm-1-.2a.35.35,0,0,1,.4-.4c.27,0,.27.14,0,.4s-.27.4-.4.4S373.14,243.32,373.27,243.05Zm2.4-2.8c0,.14-.27.34-.8.6a.88.88,0,0,0-.7.4.55.55,0,0,0,.1.8c.4.27.87-.13,1.4-1.2a.61.61,0,0,1,.2-.4.59.59,0,0,1,.4-.2,1,1,0,0,0,.2-.7,1.67,1.67,0,0,1,.6-1.1,3.63,3.63,0,0,0,.7-1c.2-.4.17-.53-.1-.4s-.07-.06.2-.2a2.14,2.14,0,0,0,.9-1.5c.07-.6.17-.76.3-.5a2.6,2.6,0,0,0,.6-.1c.27-.06.33-.43.2-1.1.13-.53.27-.73.4-.6s0,0,.1-.4.17-.46.3-.2c.13,0,.33-.13.6-.4,0-.4.1-.63.3-.7s.3-.3.3-.7.13-.53.4-.4q0,.6.6-1.2a1.92,1.92,0,0,1,.8-1c.4-.26.47-.53.2-.8s-.17-.5.3-.7.63-.5.5-.9a4,4,0,0,1,.7-.9c.33-.33.43-.56.3-.7a1.11,1.11,0,0,1,.5-.8c.33-.26.37-.4.1-.4v-.2c.27-.26.3-.43.1-.5s-.43,0-.7.3c-.53.4-.77.44-.7.1s-.1-.3-.5.1a2.43,2.43,0,0,0-.7.6q-.11.21.3,0c.13-.13.2-.16.2-.1s-.07.17-.2.3a1.09,1.09,0,0,1-.7.4c-.2,0-.17.07.1.2s.27.44,0,.5-.53.57-.8,1.5-.57,1.27-.9,1.4-.3.2.1.2.3.1.1.3a4.66,4.66,0,0,0-.7,1.1,3.48,3.48,0,0,1-.9,1.2c-.33.27-.37.4-.1.4s.23.07-.1.2-.5.54-.5,1.2-.13.87-.4.6c0-.13,0-.16-.1-.1a.4.4,0,0,0-.1.3.63.63,0,0,1-.6.4c-.27,0-.2.14.2.4s.23.34-.1.2-.37,0-.1.4.13.4,0,.4a.72.72,0,0,0-.8.1c-.27.2-.27.37,0,.5a1,1,0,0,1-.2,1,1.94,1.94,0,0,0-.4,1c.27.27.17.24-.3-.1s-.63-.36-.5-.1v1.1c0,.6-.2.84-.6.7s-.4-.16-.4.3-.07.64-.2.5-.23,0-.3.3a.75.75,0,0,0,.1.7c.27,0,.4-.06.4-.2-.27-.13-.13-.4.4-.8s.5-.3.3-.1A1,1,0,0,0,375.67,240.25Zm-.6,35a.85.85,0,0,0-.2-.6c0-.53-.13-.53-.4,0s-.27.67,0,.8A.39.39,0,0,0,375.07,275.25Zm1-.6c.27-.26.33-.46.2-.6s-.33-.13-.6,0c-.53.27-.67.5-.4.7A.55.55,0,0,0,376.07,274.65Zm5.2-2.2a3.28,3.28,0,0,1,1.6-1.4c.67-.26.67-.13,0,.4-.27.27-.13.34.4.2a.57.57,0,0,0,.2-.4l.2-.2c-.13-.13.1-.4.7-.8a2.9,2.9,0,0,1,1.3-.6l.2-.2c.13-.26.57-.33,1.3-.2s1,0,.7-.4-.07-.6.6-1,1-.53,1-.4,0,.37.3.3.5-.23.5-.5c.27-.66.53-.53.8.4,0,.14,0,.14.1,0s0-.33-.1-.6c.27-.66.43-1,.5-1a3.49,3.49,0,0,0,.7-.2c.4,0,.53.07.4.2l-.4.4-.4.4c-.13.14,0,.14.4,0s.77-.4.7-.8a.65.65,0,0,1,.5-.8c.53-.13.7-.43.5-.9s-.1-.36.3.3.33.54.2,0-.07-.66.2-.4a.4.4,0,0,1,.2.6c-.13.27.2.2,1-.2.13-.13.07-.2-.2-.2s-.37-.06-.3-.2a1.15,1.15,0,0,1,.5-.4c.27-.13.33-.26.2-.4a.51.51,0,0,1,.2-.7c.27-.2.4-.16.4.1s.23.1.7-.1a1.66,1.66,0,0,0,.9-.7.79.79,0,0,1,.1-.5c.07-.06.1,0,.1.1a1.46,1.46,0,0,0,.6-.2,2.54,2.54,0,0,0,.7-.5.8.8,0,0,0,.3-.5c0-.13-.13-.2-.4-.2-.53.14-.8.34-.8.6s.2.24.2.3-.07,0-.2-.1-.43-.06-.9.2-1,.6-1.6,1-1.13.74-1.6,1a2.7,2.7,0,0,1-.9.4c-.27-.13-.43-.1-.5.1s0,.3.3.3,0,.27-.5.4-.77.14-.9,0-.2.14-.2.4.17.24.1.3-.17,0-.3-.1-.53,0-.8.4a1.18,1.18,0,0,1-1,.6c-.27-.13-.4,0-.4.3s-.2.44-.6.3h-.2a.35.35,0,0,1-.4.4c-.4.27-.47.24-.2-.1s.07-.23-.6.3c-.27.54-.4.6-.4.2.13-.13.1-.13-.1,0a6.16,6.16,0,0,0-.7.6c-.67.67-1.07.94-1.2.8s-.27-.06-.4.2-.27.47-.8.6a1.48,1.48,0,0,0-1,.6c0,.4-.13.47-.4.2a3.33,3.33,0,0,0-.9.3,3.59,3.59,0,0,0-1.1.7c-.27.27-.43.34-.5.2s-.23-.06-.5.2-.27.37-.4.3-.27,0-.4.3-.47.34-.6.2-.27-.06-.4.2-.23.44-.7.5-.7.24-.7.5.13.54.4.4.33-.06.2.2-.1.37.1.3a.87.87,0,0,0,.5-.5c0-.4.1-.56.3-.5s.37,0,.5-.3.4-.53,1.2-.8a12.48,12.48,0,0,0,1.6-.6,2,2,0,0,0-.4.8C380.87,273,381,272.85,381.27,272.45Zm-3.6,7.4c.53,0,.53-.13,0-.4-.13-.13-.23-.1-.3.1S377.4,279.85,377.67,279.85Zm.4-.8a.31.31,0,0,0,.2.3c.13.07.2,0,.2-.1s.07-.26-.2-.4S377.94,278.79,378.07,279.05Zm1.2-.2a.57.57,0,0,0,.2-.4.18.18,0,0,0-.2-.2q-.4,0-.3.3T379.27,278.85Zm1.6-53.6c0,.27.13.27.4,0s.1-.4-.1-.4S380.87,225,380.87,225.25Zm1.2-1.8c-.27.27-.2.34.2.2s.33-.43.2-.5S382.2,223.19,382.07,223.45Zm.8,53.6.4-.2a.62.62,0,0,0-.6-.1C382.4,276.82,382.47,276.92,382.87,277.05Zm1.4-6.4c-.27.27-.33.4-.2.4s.33-.13.6-.4C384.67,270.39,384.54,270.39,384.27,270.65Zm1,.8c.27-.26.2-.4-.2-.4a2.77,2.77,0,0,0-.7.5c-.2.2-.17.24.1.1s.27-.33.4-.2A.24.24,0,0,0,385.27,271.45Zm.2-1.2c.27,0,.4-.06.4-.2a.47.47,0,0,0-.5-.1C385.17,270,385.2,270.12,385.47,270.25Zm4-1.6c.27-.26.47-.33.6-.2s.13.07,0-.2-.23-.3-.7-.1-.7.44-.7.7C388.27,269.39,388.54,269.32,389.47,268.65Zm4-2.6c.27-.26.3-.4.1-.4s-.37.14-.5.4C393.07,266.59,393.2,266.59,393.47,266.05Zm3.4-2c.53-.66.47-.8-.2-.4-.4.27-.53.47-.4.6S396.6,264.32,396.87,264.05Zm2-1.6c.4-.26.5-.4.3-.4s-.37.14-.5.4-.37.4-.3.4S398.6,262.72,398.87,262.45Zm1.5-.8c.07-.26,0-.4-.1-.4a.61.61,0,0,0-.2.4l-.2.4A.47.47,0,0,0,400.37,261.65Zm-.3-1.8c.53.4,1,.34,1.3-.2s.37-.8.1-.8a.35.35,0,0,0-.4.4.35.35,0,0,1-.4.4h-.6C399.94,259.65,399.94,259.72,400.07,259.85Zm1.2,1.2c.27-.4.33-.6.2-.6s-.27.2-.4.6C400.8,261.85,400.87,261.85,401.27,261.05Zm15-11.6q-.19-.19.3-.6c.33-.26.57-.33.7-.2s.53-.1,1.2-.7.87-1,.6-1.1-.4-.06-.8.2-.53.54-.4.8v.2a2.78,2.78,0,0,0-1.3.7c-.6.47-.83.77-.7.9s-.1.37-.3.3a1,1,0,0,0-.7.1c-.27,0-.63.27-1.1.8a6.9,6.9,0,0,0-.9,1.2l-.2.2c0-.26-.33-.13-1,.4s-1,.94-1,1.2a1.12,1.12,0,0,1-.4.8c-.67.4-.77.44-.3.1s.57-.56.3-.7-.4-.13-.4,0-.4.54-1.2,1.2-1.4,1.2-1.4,1.6-.13.4-.4,0-.33-.46-.6.2a.9.9,0,0,1-.3.8c-.2.14-.23.07-.1-.2.4-.53.23-.56-.5-.1s-.9.84-.5,1.1.33.2.2.2a.85.85,0,0,1-.7-.4c-.2-.26-.23-.26-.1,0s-.23.57-.7.9a2.11,2.11,0,0,1-1.1.5c-.27,0-.37.07-.3.2s.23.2.5.2.33.14-.2.4q-.41.6,0,.3c.27-.2.6-.43,1-.7l1.8-1.2a11.49,11.49,0,0,0,2.2-2c0-.13.33-.33,1-.6s.8-.53.8-.8a.18.18,0,0,1,.2-.2,18,18,0,0,0,2.4-1.7c.53-.46,1-.9,1.4-1.3s.53-.6.4-.6-.1-.43.5-.9,1-.63,1.3-.5a.83.83,0,0,0,.7-.5C416.37,249.62,416.4,249.45,416.27,249.45Zm-13.8,8.8v.4q.79-.39.6-.6C402.94,257.92,402.74,258,402.47,258.25Zm.4,54.8c.4.4.47.6.2.6a2.59,2.59,0,0,0-.4-.6c-.13-.13-.2-.23-.2-.3S402.6,312.79,402.87,313.05Zm9-59.8c.53-.53.83-.76.9-.7s-.17.3-.7.7a2.93,2.93,0,0,1-1,.6C410.94,253.85,411.2,253.65,411.87,253.25Zm6.4-2.4,1-1c0-.26-.17-.26-.5,0s-.7.6-1.1,1-.73.77-1,1.1-.27.44,0,.3a.9.9,0,0,0,.5-.5C417.24,251.55,417.6,251.25,418.27,250.85Zm1.4-1.2c.27,0,.4-.06.4-.2a.18.18,0,0,0-.2-.2l-.1.1C419.57,249.55,419.54,249.65,419.67,249.65Zm13.6-17.2c-.27-.26-.5-.2-.7.2a13.83,13.83,0,0,1-1.7,2.2,1.62,1.62,0,0,0-.8,1.2c.27.14.33.4.2.8a2.39,2.39,0,0,1-.6,1c0,.27.07.4.2.4s.27.14,0,.4-.5.37-.7.3-.37,0-.5.3c-.4.4-.33.44.2.1s.47-.16-.2.5-.83.77-.9.7-.1,0-.1.3.1.37-.1.3-.3,0-.3.3a3.78,3.78,0,0,1-1.3,1.1c-.73.47-1,.84-.9,1.1s.27.2,0,.2-.67.34-1.2,1-.93,1-1.2,1.1a.48.48,0,0,0-.4.5c.13.27.07.37-.2.3s-.27,0,0,.3c0,.54-.13.67-.4.4s-.53-.13-.8.4a2.94,2.94,0,0,1-.7.8c-.2.14-.17.2.1.2s.6-.1.6-.3.27-.43.8-.7a2.54,2.54,0,0,0,.5-.6,6.41,6.41,0,0,1,1.1-1l.6-.4-.2.2.4-.4a3.2,3.2,0,0,0,1.2-1.5c.13-.46.4-.63.8-.5.13.14.2.07.2-.2a.35.35,0,0,1,.4-.4q.4,0,.3-.3c-.07-.2.1-.43.5-.7a7.26,7.26,0,0,0,1.6-1.8c.53-.8.93-1.13,1.2-1s.13-.1,0-.3,0-.5.4-.9.8-.53.8-.8.07-.33.2-.2a.55.55,0,0,0,.4-.2c.13-.26.1-.43-.1-.5s-.37,0-.5.3-.2.2-.6-.2a1.31,1.31,0,0,1,0-1.4c.4-.53.7-.76.9-.7s.17.24-.1.5c-.53.4-.67.64-.4.7s.27.3,0,.7,0,.24.3-.1a1.54,1.54,0,0,0,.5-1.1c0-.26.1-.4.3-.4s.3.14.3.4c.27.27.4.27.4,0,.27-.13.3-.26.1-.4s-.37-.13-.5,0-.43.1-.5-.1,0-.36.3-.5c1.07-.8,1.33-.8.8,0,0,.27.07.34.2.2a.9.9,0,0,0,.5-.5q.11-.3-.3-.3a1.18,1.18,0,0,1-.7-.2c-.2-.13-.23-.33-.1-.6s.1-.23.3.1.37.37.5.1.07-.33.2-.2.4.07.8-.2.5-.4.3-.4-.43-.2-.7-.6-.13-.46,0-.6.33-.2.2-.2-.53.2-.8.6a1,1,0,0,0-.2,1C433.87,232.65,433.8,232.72,433.27,232.45Zm-13.2,14c0,.4.27.34.8-.2.27-.26.37-.5.3-.7s-.23-.16-.5.1-.27.57-.4.5S420.07,246.19,420.07,246.45Zm.2-38.8h.2q.4.21.3,0C420.7,207.52,420.54,207.52,420.27,207.65Zm2,36.4c.13.54,0,.67-.5.4s-.57-.2-.3.2.33.44.2.5,0,0,.4-.3.53-.66.4-.8S422.27,243.79,422.27,244.05Zm2.8-2.8c-.53.27-.73.5-.6.7s.07.24-.2.1a.53.53,0,0,0-.6.6c.13.14.5-.06,1.1-.6a15.81,15.81,0,0,0,1.8-1.9c.6-.73,1.17-1.4,1.7-2s.87-.83,1-.7.2.14.2,0-.07-.43.2-.5a.46.46,0,0,0,.4-.5c0-.26-.13-.3-.4-.1a9.63,9.63,0,0,0-1,.9c-.4.4-.93.94-1.6,1.6a.61.61,0,0,0-.2.4c0,.27-.33.6-1,1s-.9.8-.7.8S425.34,241.12,425.07,241.25Zm4-3q.4-.39,0-.3a.48.48,0,0,0-.4.5c-.13.27-.17.37-.1.3Zm1.8-.8c-.27.27-.4.2-.4-.2s.1-.5.3-.3S431,237.32,430.87,237.45Zm1.4-1.2c.13,0,.23-.13.3-.4s0-.33-.1-.2a1.15,1.15,0,0,0-.5.4C431.9,236.19,432,236.25,432.27,236.25Zm.2-2.6c-.4.4-.47.4-.2,0s.43-.56.5-.5S432.74,233.39,432.47,233.65Zm1.6-1.2a.57.57,0,0,1-.2-.4c-.27-.26-.27-.4,0-.4s.23.1.3.3A.45.45,0,0,1,434.07,232.45Zm.8-2.8c-.27.27-.2.67.2,1.2.67.8,1,1,1,.6l-.4-.4c-.4-.13-.53-.33-.4-.6s.07-.4-.2-.4-.27-.13,0-.4C435.07,229.52,435,229.52,434.87,229.65Zm1.4.8c-.27.27-.37.4-.3.4s.23-.13.5-.4.37-.6.3-.6S436.54,230.05,436.27,230.45Zm1-2a.72.72,0,0,0-.4.7c0,.34.13.44.4.3s.47-.43.2-.5-.27-.23,0-.5.2-.23.2-.3S437.54,228.19,437.27,228.45Zm.8-10.8a.18.18,0,0,0-.2.2v.2a.55.55,0,0,0,.4-.2C438.4,217.72,438.34,217.65,438.07,217.65Zm.2,8.4c-.13.14-.17.24-.1.3s.17,0,.3-.3.37-.43.3-.5S438.54,225.65,438.27,226.05Z" transform="translate(-72.25 -201.66)"/><path class="a" d="M460.27,266.25a3.05,3.05,0,0,1,.5,1.8c.06.94,0,1.34-.3,1.2s-.47,0-.6.4a.92.92,0,0,1-1,.6.9.9,0,0,0-.8.3c-.14.2-.27.24-.4.1s-.5,0-.7.4-.43.4-.7,0c0-.53-.14-.53-.4,0,0,.27-.07.4-.2.4a3.27,3.27,0,0,0-1.3.5,1.86,1.86,0,0,1-1.5.3.18.18,0,0,0-.2.2,4.05,4.05,0,0,1-1.1.6c-.6.27-1,.34-1.1.2a.18.18,0,0,0-.2.2.49.49,0,0,1-.6.3.85.85,0,0,0-.8.3l-.4.2c0-.26-.14-.26-.4,0a1.78,1.78,0,0,1-1.3.4c-.6,0-.9.07-.9.2s-.47.24-1.4.3-1.4.24-1.4.5-.2.3-.6.1a.71.71,0,0,0-1,.3c-.27.27-.43.34-.5.2s-.1-.13-.1,0a5.22,5.22,0,0,0-.3.7q-.1.3-.3.9c0,.27-.1.3-.3.1s-.37,0-.5.5,0,.74-.1.6-.17.14-.3.8a3,3,0,0,1-1.2,1.5q-.81.51-.6.9c.13.54,0,.67-.3.4s-.43-.26-.3,0-.13.7-.8,1.3-.6.9.2.9a.35.35,0,0,0,.4-.4c0,.14.07.17.2.1a.86.86,0,0,1,.3-.1c.07,0,0,.1-.2.3s-.64.7-1.3,1.5c-1.07,1.07-1.9,1.57-2.5,1.5s-.3-.3.9-.7c.8-.26,1.1-.5.9-.7s0-.43.5-.7.33-.66-.2-.8c0-.13,0-.16-.1-.1a.79.79,0,0,0-.1.5.53.53,0,0,1-.6.6c-.4,0-.53.14-.4.4s.06.34-.6.6c-1.07.8-1.4,1.4-1,1.8s.23.54-.1.8-.5.34-.5.2-.13,0-.4.5-.53.64-.8.5a.35.35,0,0,0-.4.4c0,.27-.07.34-.2.2a1.37,1.37,0,0,0-1,.4c-.13.27-.6.5-1.4.7l-2.5.6a11.14,11.14,0,0,1-2.5.3,5.85,5.85,0,0,1-1.8-.2l-1.2-.8c-.27-.26-.6-.6-1-1a5.31,5.31,0,0,1-1-1.4,14.69,14.69,0,0,1-.8-7,42.66,42.66,0,0,1,1.5-7.8,41.53,41.53,0,0,1,2.4-6.5c.86-1.8,1.36-2.83,1.5-3.1l.4-.4a.61.61,0,0,1,.2-.4c.26-.26.33-.5.2-.7s-.07-.16.2.1.53,0,.4-.5a.91.91,0,0,1,.4-1.1c.4-.26.53-.43.4-.5s.06-.43.6-1.1.73-1.06.6-1.2,0-.33.4-.6.33-.4.2-.4c1.06-1.73,2-3.1,2.7-4.1s1.43-1.9,2.1-2.7,1.06-1.06,1.2-.8.26.34,0,.6-.17.34-.1.2a15.67,15.67,0,0,1,1.1-1.4c.67-.8,1.13-1.2,1.4-1.2a2.12,2.12,0,0,1,1.2.2,1.61,1.61,0,0,0,1.4.5c.53-.06.67.1.4.5s-.1.57.5.1,1.4-1.1,2.4-1.9,2.06-1.56,3.2-2.3a5.67,5.67,0,0,1,2.9-1.1,8.21,8.21,0,0,1,2.5.3,3.45,3.45,0,0,1,1.3.7l.8.8a2.39,2.39,0,0,0,1,.6,2,2,0,0,1,1.2,2.4c-.14.4-.14.57,0,.5s.2.3.2,1.1c-.27.94-.5,1.34-.7,1.2s-.17-.6.1-1.4c.13-1.6,0-2.46-.4-2.6s-.34-.43-.2-.5.06-.16-.2-.3-.37-.13-.3,0,0,.34-.3.6-.3.67-.1.8.17.87-.1,2.2a5.85,5.85,0,0,0-.2,2.5c.13.34.06.5-.2.5s-.47.24-.6.7a1,1,0,0,0,.2,1.1c0,.27-.07.34-.2.2s-.27-.1-.4.1-.13.3,0,.3.37.1.3.3-.17.24-.3.1-.13.27,0,.8c.26.8.23,1.07-.1.8s-.5-.06-.5.6q.19.41-.6,1.2c-.4.4-.57.64-.5.7a.92.92,0,0,0,.3.2,1.72,1.72,0,0,1,.3.2c.06.07,0,.3-.3.7a3.54,3.54,0,0,0-.6,1.4.35.35,0,0,1-.4.4c-.27,0-.34.24-.2.7s.06.7-.2.7-.37.1-.3.3-.17.5-.7.9c-.27.4-.37.64-.3.7s-.1.5-.5,1.3-.67,1.37-.8,1.7a2.73,2.73,0,0,1-.6.9h-.2v.2c.26,0,.23.07-.1.2s-.37.27-.1.4q0,.41.6,0c.4-.26.53-.46.4-.6s.16-.4.5-.4.36.14.1.4.26.34,1.6-.2,2.9-1.16,4.7-1.9l5.4-2.2C458.57,266.82,459.74,266.39,460.27,266.25Zm-35.4,23.2c.13-.4.13-.66,0-.8a11.35,11.35,0,0,1-.2-3.2q0-1.59.3-1.8c.2-.13.16-.33-.1-.6a13.61,13.61,0,0,1,.4-2.1c.27-1.13.27-1.56,0-1.3s-.27.34-.4.2-.2-.06-.2.2-.07.37.2.3.26.17,0,.7a6.05,6.05,0,0,0-.5,2.3c-.07,1-.17,2-.3,2.9q-.21.81,0,.6c.26,0,.33.07.2.2-.53.94-.6,1.27-.2,1,.13-.13.17,0,.1.3a.56.56,0,0,0,.3.7c.13,0,.13.07,0,.2s-.37.1-.3.3S424.47,289.72,424.87,289.45Zm.8-11.2c-.27,0-.4.1-.4.3s.06.3.2.3.27-.1.4-.3S425.93,278.25,425.67,278.25Zm.4-1.6v.6a.64.64,0,0,1,.6-.4c.26.27.26.2,0-.2s-.34-.66-.2-.8.13-.2,0-.2S426.2,276,426.07,276.65Zm.6,11.2a39.42,39.42,0,0,0,4-4.2c1.2-1.46,2.26-2.83,3.2-4.1s1.93-2.76,3-4.5a8.84,8.84,0,0,1-3.2-2.3,12.52,12.52,0,0,1-1.1-1.7c-.2-.4-.37-.46-.5-.2s-.47,1-1,2.2a37.35,37.35,0,0,0-1.8,4.1c-.4,1.14-.77,2.24-1.1,3.3a25.62,25.62,0,0,0-.8,3.3C427.17,284.89,426.93,286.25,426.67,287.85Zm2.8-20.6c-.14,0-.14.07,0,.2q.79.41.6,0A.4.4,0,0,0,429.47,267.25Zm3.4,21.4c.13-.13.4-.36.8-.7s.33-.23-.2.3S432.87,288.79,432.87,288.65Zm4.4-16.6c.13.8.56.84,1.3.1a18.52,18.52,0,0,0,2.6-3.7q1.5-2.59,3.1-5.9c1.06-2.2,2-4.3,2.8-6.3a29,29,0,0,0,1.6-5.1c.26-1.4.13-2.1-.4-2.1h-.4a1.08,1.08,0,0,1-.5.8,1.47,1.47,0,0,1-.9.4q-.41,0-.3.3c.07.2-.17.37-.7.5-.27,0-.2-.2.2-.6.66-1.06.53-1.33-.4-.8a4.18,4.18,0,0,1-.7.3c-.2.07-.24,0-.1-.1s-.1-.13-.3,0a.41.41,0,0,0-.1.6c.26.27.1.64-.5,1.1a2.69,2.69,0,0,1-1.3.7,1.17,1.17,0,0,0-.6.3c-.27.2-.27.37,0,.5s.33.27-.2.8a1.15,1.15,0,0,0-.5.4c-.07.14,0,.2.1.2q-1.8,2.81-2.9,4.7a42.17,42.17,0,0,0-2,3.9,8.36,8.36,0,0,0-.9,3,3.37,3.37,0,0,1,0,1.7c-.14.2-.07.44.2.7s.3.4.1.4-.24.2-.1.6.46.37.6.3.13,0,0,.3c0,.94.33,1.4,1,1.4C437.2,271.45,437.27,271.65,437.27,272.05Zm-.6-7.2c0-.13,0-.1.1.1a1.62,1.62,0,0,1-.1.9c-.13.8-.24,1.2-.3,1.2s-.1-.13-.1-.4a6,6,0,0,1,.1-1A1.53,1.53,0,0,1,436.67,264.85Zm-.2,2.6.4.4c.13.54.06.67-.2.4A.64.64,0,0,1,436.47,267.45Zm.8-4.6c.27.27.13.27-.4,0-.27-.13-.27-.2,0-.2C437.13,262.39,437.27,262.45,437.27,262.85Zm-.6.8c0-.26.1-.33.3-.2s.3.27.3.4h-.2C436.8,263.85,436.67,263.79,436.67,263.65Zm.4,6c.13-.13.2,0,.2.5s-.14.44-.4-.1v-.2A.18.18,0,0,1,437.07,269.65Zm1.2-9.4h0a9.64,9.64,0,0,0-.4.9,4.22,4.22,0,0,1-.4.8q-.21.3,0-.3a1.89,1.89,0,0,0,.4-.9C437.87,260.55,438,260.39,438.27,260.25Zm-.8,23.2c-.14-.26,0-.6.3-1s.5-.46.5-.2,0,.6-.3,1S437.47,283.72,437.47,283.45Zm.4-12c0-.13,0-.16.1-.1a.79.79,0,0,1,.1.5c.26.67.23.8-.1.4S437.6,271.59,437.87,271.45Zm1.4,9.4c-.27-.26-.27-.43,0-.5s.33.1.2.5a.79.79,0,0,1-.8.6c-.54.14-.57.14-.1,0S439.27,281.12,439.27,280.85Zm2.2-25.4c.27.14.07.47-.6,1s-.94,1-.8.9,0,.17-.4.7a2.45,2.45,0,0,0-.6,1.3c0,.34-.14.5-.4.5-.54,0-.4-.53.4-1.6.26-.4.6-.86,1-1.4.26,0,.36-.06.3-.2s0-.33.1-.6a.57.57,0,0,0,.3-.7C440.7,255,440.93,255.05,441.47,255.45Zm-.6,22.8c.13,0,.17.14.1.4a.47.47,0,0,1-.5.4c-.27,0-.34-.13-.2-.4A.64.64,0,0,1,440.87,278.25Zm2.6-26a1.39,1.39,0,0,1,.7-.3q.49-.09.3.3c0,.14-.3.47-.9,1s-1,.8-1.1.8-.2-.06-.2-.2c.27-.53.27-.9,0-1.1s-.2-.3.2-.3l.2.2c-.27.27-.13.37.4.3s.8-.23.8-.5-.13-.26-.4,0C443.33,252.45,443.33,252.39,443.47,252.25Zm1.4-2.2a.18.18,0,0,1,.2.2l-.2.2a.31.31,0,0,1-.3-.2C444.5,250.12,444.6,250.05,444.87,250.05Zm.6,21c-.14,0-.17-.13-.1-.4s.17-.4.3-.4.33.14.2.4S445.6,271.05,445.47,271.05Zm1-1.4c-.14.27-.3.4-.5.4s-.23-.13-.1-.4.1-.4.3-.4S446.47,269.39,446.47,269.65Zm0-20.8c-.14.4-.07.6.2.6s.53-.2.8-.6l.4-.4c.26.14.4,0,.4-.5s-.2-.43-.6.1c-.27.27-.5.37-.7.3S446.6,248.45,446.47,248.85Zm.4,19.2q.39.21,0,.6c-.4.27-.54.2-.4-.2a.57.57,0,0,0,.2-.4C446.8,267.92,446.87,267.92,446.87,268.05Zm.6-.4-.4-.4c0-.4.1-.46.3-.2S447.6,267.52,447.47,267.65Zm1.8-4.6a5.42,5.42,0,0,1,.7-1.6c.33-.53.5-.66.5-.4a1.53,1.53,0,0,1-.5.8.69.69,0,0,0-.3.6c.26.27.26.44,0,.5a.48.48,0,0,0-.4.5c.13.14.1.24-.1.3s-.24.24-.1.5.06.4-.2.4-.33.14-.2.4-.1.44-.3.5a.47.47,0,0,0-.3.5c.26.27.2.4-.2.4s-.47-.13-.2-.4.37-.76.7-1.5A5.36,5.36,0,0,1,449.27,263.05Zm-.2-2.2v.2a.35.35,0,0,1-.4.4c-.27,0-.3-.1-.1-.3A.8.8,0,0,1,449.07,260.85Zm.4-2.6c-.27,0-.3.14-.1.4s.37.4.5.4v-.4A.35.35,0,0,0,449.47,258.25Zm1.6,2h-.4c-.27,0-.3,0-.1-.1A.47.47,0,0,1,451.07,260.25Zm0-1c-.53.54-.67.54-.4,0s.46-.6.6-.6S451.33,258.85,451.07,259.25Zm.4-1c-.14.14-.27.07-.4-.2.13-.26.26-.36.4-.3S451.6,258,451.47,258.25Zm0-1.6a6.33,6.33,0,0,1,.5-.9c.07-.06.1.1.1.5a1.91,1.91,0,0,1-.6,1.1C451.2,257.55,451.2,257.32,451.47,256.65Zm1-3.4c.13-.26.2-.26.2,0s.13.34.4.2.2-.16.2-.1-.07.17-.2.3a1.15,1.15,0,0,0-.5,1.2c.06.54.1.74.1.6l-.4-.2c-.27-.13-.3-.4-.1-.8A2.66,2.66,0,0,0,452.47,253.25Z" transform="translate(-72.25 -201.66)"/><path class="a" d="M505.47,241.65q.19.81.9.6c.46-.13.36,0-.3.4a6.32,6.32,0,0,0-.9.7.55.55,0,0,1-.7.1q-.21-.19-.3.3t-.3.3q-.4-.2-.6.3t-.6.3q-.41-.19-.3,0c.06.14-.24.47-.9,1a3,3,0,0,1-1,.6c-.14,0-.2,0-.2-.1s.06-.16.2-.3h0c-.14.14-.2.24-.2.3s-.07.17-.2.3-.3.6-.9,1-1,.54-1.3.4-.3-.1-.1.1,0,.5-.7.9l-2,1.4c-.94.67-1.9,1.37-2.9,2.1l-2.6,1.9c-.74.54-1.17.74-1.3.6a.18.18,0,0,0-.2.2c.13.14-.8,1-2.8,2.6s-4.2,3.34-6.6,5.2-4.64,3.7-6.7,5.5-3.17,3-3.3,3.5a2.09,2.09,0,0,1-.1.9.79.79,0,0,0-.1.5c0,.27,0,.74-.1,1.4s-.24,1.8-.5,3.4a40.12,40.12,0,0,0-.3,6.2c.06,1.87.23,2.87.5,3a3.79,3.79,0,0,1,1,1.7c.4,1,.93,1.37,1.6,1.1a8.86,8.86,0,0,0,3.1-1.9c1.4-1.13,3-2.53,4.7-4.2s3.6-3.43,5.6-5.3,3.86-3.66,5.6-5.4,3.2-3.23,4.4-4.5,2-2.1,2.4-2.5a3.05,3.05,0,0,1,2.2,1.5,2,2,0,0,1-.2,2.5c-1.07,1.2-2.57,2.84-4.5,4.9s-4,4.17-6.1,6.3-4.14,4.07-6,5.8a32.43,32.43,0,0,1-4.4,3.6,10.5,10.5,0,0,1-3.6,1.9,24.69,24.69,0,0,1-4.6.3,31,31,0,0,1-3.2-.1,6.83,6.83,0,0,1-1.8-.5,8.18,8.18,0,0,1-2.4-2.1,7.37,7.37,0,0,1-1.1-2,9.49,9.49,0,0,1-.4-1.5c-.07-.4-.24-.6-.5-.6a27.42,27.42,0,0,1-.6-3c-.14-.8-.24-1.53-.3-2.2s0-1.06.1-1.2q.39-.6-1.8,1.5c-1.47,1.4-3.17,3.14-5.1,5.2s-3.77,4.14-5.5,6.2-2.67,3.5-2.8,4.3-.83.87-1.7.6-1.83-.53-2.9-.8a.57.57,0,0,1-.2-.4,1.89,1.89,0,0,1,0-1.2c.13-.4.33-.53.6-.4s.13-.06,0-.2a3.19,3.19,0,0,1,.1-.8c.07-.26.23-.33.5-.2s.3.27.1,0-.1-.6.3-1a5.68,5.68,0,0,0,.9-1.3,7.85,7.85,0,0,1,1.3-1.7c.53-.4.77-.7.7-.9s.17-.5.7-.9l.4-.2h-.2l.4-.4a5.92,5.92,0,0,0,.7-.5.38.38,0,0,0,.1-.3c0-.13.13-.33.4-.6l1.6-1.6a4.49,4.49,0,0,0,.7-.8l.2-.4a2,2,0,0,1,.4-.5l.9-.9a3.44,3.44,0,0,0,.9-.8c.2-.26.23-.33.1-.2-.4,0-.34-.13.2-.4q1-.79,2.4-2.1t3.2-2.9a7.22,7.22,0,0,0,1.5-1.5.85.85,0,0,1,.7-.5c.26.14.3.1.1-.1s-.17-.36.1-.5.3-.36.1-.7a.67.67,0,0,1,.1-.9,3.15,3.15,0,0,0,.6-1.6c.13-.8.06-1.2-.2-1.2s-.2,0-.2-.1.06-.1.2-.1a1.55,1.55,0,0,0,.6-1.4,2.83,2.83,0,0,1,.4-1.6c0-.13.06-.66.2-1.6s.3-1.93.5-3,.36-2,.5-2.8.26-1.06.4-.8.36.14.3-.4,0-.8.3-.8.36-.1.3-.3-.24-.23-.5-.1-.2-.06.2-.6.46-.73.2-.6-.34.27-.2,0a.64.64,0,0,1,.6-.4c.13,0,.13-.06,0-.2s-.27-.13,0-.4.33-.4.2-.4c-.27.27-.4.27-.4,0s.1-.36.3-.3.23,0,.1-.3.06-.4.2-.4.2-.13.2-.4.06-.23-.2.1-.34.24-.2-.3.46-.8.6-.8a1.31,1.31,0,0,0,.3-.5c.06-.2,0-.16-.3.1s-.3,0-.1-.3.36-.63.5-.9a1.8,1.8,0,0,0,.5-.8c.06-.26,0-.33-.3-.2s-.2-.06-.2-.2a.93.93,0,0,1,.5-.5c.2-.06.23-.23.1-.5a1.72,1.72,0,0,1,.2-.8,13.53,13.53,0,0,0,.6-1.8c.13-.66.26-1,.4-1.1a.47.47,0,0,1,.4,0l.4.2c.13.07.26,0,.4-.3s.73-.26,1.4,0a11,11,0,0,1,3.4,2,4.11,4.11,0,0,1,1,3,22.59,22.59,0,0,1-.8,5.2c-.54,2.14-1.2,5-2,8.6v.8a.57.57,0,0,0-.2.4c-.27.27-.27.44,0,.5a.82.82,0,0,0,.8-.3l.4-.4a2,2,0,0,0,.8-.4,21.45,21.45,0,0,0,1.8-1.4c.8-.8,1.26-1.06,1.4-.8s.4.17.4.1-.14-.16-.4-.3c-.27-.53-.27-.7,0-.5s.4.1.4-.3.26-.36.4-.3.46,0,1-.3.66-.36.8-.3.06.3-.2.7-.2.34.6-.2c.4-.26.56-.5.5-.7s.1-.36.5-.5.6-.1.6-.3.13-.23.4-.1.36-.1.3-.3.16-.43.7-.7a14.32,14.32,0,0,0,3.7-2.4,38.42,38.42,0,0,1,3.5-2.6,3.44,3.44,0,0,0,.9-.8c.2-.26,0-.26-.7,0l-.8.4a5.67,5.67,0,0,0,.9-.7c.2-.2.23-.36.1-.5s-.2,0-.6.4a1.65,1.65,0,0,0-.6,1,.9.9,0,0,1-.5.5c-.2.07-.17-.1.1-.5,0-.26-.14-.33-.4-.2-.54,0-.54.14,0,.4.13.14-.07.2-.6.2-.27,0-.54.2-.8.6s-.74.54-1,.4-.34-.06-.2.2.2.4-.2.4a2.16,2.16,0,0,0-1.1.5,9.4,9.4,0,0,0-.9.7.52.52,0,0,1-.2.7c-.27.2-.4.17-.4-.1s-.2-.23-.6.1-.54.64-.4.9-.07.3-.6.1-.54-.1,0,.3.46.4-.2.4a.57.57,0,0,1-.2.4c.13.27.1.4-.1.4s-.24-.2-.1-.6a.4.4,0,0,0-.2-.6c-.27-.13-.4-.06-.4.2s-.17.67-.9,1.2-1.1.67-1.1.4c.13-.53.4-.76.8-.7s.4,0,0-.3c-.14-.13,0-.2.4-.2.26.27.4.2.4-.2s.93-1.16,2.8-2.7,4-3.2,6.4-5,4.83-3.56,7.3-5.3,4.3-2.93,5.5-3.6c1.86-1.06,2.93-1.26,3.2-.6.4.4.4.74,0,1a.81.81,0,0,1-.6.2c-.27-.13-.37-.1-.3.1s-.57.64-1.9,1.3a9.35,9.35,0,0,0-2.2,1.6l-.2.4a1.67,1.67,0,0,0-1.6.6q-.81.81-1.2.6a.4.4,0,0,0-.6.2c-.14.27-.07.27.2,0,.26,0,.4.07.4.2-.27.54-.74.67-1.4.4q-.41-.19-.6.6t-.6.6c-.27-.13-.47-.1-.6.1s-.07.24.2.1.33-.1.2.1.13.17.8-.1,1-.56,1.1-.5.43-.3,1.1-1.1c.4-.26.66-.36.8-.3s.2,0,.2-.3.3-.36.5-.3.76-.23,1.7-.9a28.89,28.89,0,0,1,3-2c.93-.53,1.46-.66,1.6-.4s.1.37.3.3.23-.23.1-.5-.17-.2-.1-.2.16.07.3.2.46.34.6.2S505.33,241.25,505.47,241.65Zm-31.8,19.2c.13.27.1.4-.1.4s-.3-.13-.3-.4C473.53,260.32,473.67,260.32,473.67,260.85Zm5.2-3.6c.26-.13.33-.13.2,0s-.3.47-.1.6.16.2-.1.2-.27-.1-.4-.3S478.47,257.39,478.87,257.25Zm4.6-3.4c-.27.27-.4.27-.4,0s0-.33.1-.2.23.07.5-.2.4-.4.8,0,.26.34,0,.2A1,1,0,0,0,483.47,253.85Zm3.4-2c-1.2,1.2-1.54,1.27-1,.2a3.33,3.33,0,0,1,1.2-.7C487.6,251.15,487.53,251.32,486.87,251.85Zm4.6-3c.93-.66,1.36-1.06,1.3-1.2s-.24-.13-.5,0q-.6.6-.6,0,0-.39-.6.6a1.33,1.33,0,0,1-.6.8c-.27.14-.27,0,0-.4s.16-.4.1-.4-.24.27-.5.8c-.27.14-.4.24-.4.3s.06,0,.2-.1.36-.26.3,0S490.53,249.39,491.47,248.85Z" transform="translate(-72.25 -201.66)"/></svg>