<svg width="60" height="60" viewBox="0 0 60 60" fill="none" xmlns="http://www.w3.org/2000/svg">
<path d="M0.1875 13.3313C0.565568 11.6747 1.49496 10.1955 2.82346 9.13616C4.15195 8.07676 5.80082 7.49989 7.5 7.5H52.5C54.1992 7.49989 55.848 8.07676 57.1765 9.13616C58.505 10.1955 59.4344 11.6747 59.8125 13.3313L30 31.5525L0.1875 13.3313ZM0 17.6138V44.2537L21.7612 30.9113L0 17.6138ZM25.3538 33.1125L0.71625 48.2138C1.32497 49.4973 2.28572 50.5816 3.48668 51.3404C4.68764 52.0992 6.0794 52.5014 7.5 52.5H52.5C53.9204 52.5003 55.3116 52.0973 56.5119 51.3378C57.7121 50.5784 58.6721 49.4937 59.28 48.21L34.6425 33.1088L30 35.9475L25.3538 33.1125ZM38.2387 30.915L60 44.2537V17.6138L38.2387 30.9113V30.915Z" fill="#F9A620"/>
</svg>
