<svg width="14" height="60" viewBox="0 0 14 60" fill="none" xmlns="http://www.w3.org/2000/svg">
<path d="M13.8462 53.0769C13.8462 54.913 13.1168 56.6739 11.8184 57.9723C10.5201 59.2706 8.75919 60 6.92308 60C5.08696 60 3.32605 59.2706 2.02772 57.9723C0.729393 56.6739 0 54.913 0 53.0769C0 51.2408 0.729393 49.4799 2.02772 48.1816C3.32605 46.8832 5.08696 46.1538 6.92308 46.1538C8.75919 46.1538 10.5201 46.8832 11.8184 48.1816C13.1168 49.4799 13.8462 51.2408 13.8462 53.0769ZM13.8462 30C13.8462 31.8361 13.1168 33.597 11.8184 34.8954C10.5201 36.1937 8.75919 36.9231 6.92308 36.9231C5.08696 36.9231 3.32605 36.1937 2.02772 34.8954C0.729393 33.597 0 31.8361 0 30C0 28.1639 0.729393 26.403 2.02772 25.1046C3.32605 23.8063 5.08696 23.0769 6.92308 23.0769C8.75919 23.0769 10.5201 23.8063 11.8184 25.1046C13.1168 26.403 13.8462 28.1639 13.8462 30ZM13.8462 6.92308C13.8462 8.75919 13.1168 10.5201 11.8184 11.8184C10.5201 13.1168 8.75919 13.8462 6.92308 13.8462C5.08696 13.8462 3.32605 13.1168 2.02772 11.8184C0.729393 10.5201 0 8.75919 0 6.92308C0 5.08696 0.729393 3.32605 2.02772 2.02772C3.32605 0.729394 5.08696 0 6.92308 0C8.75919 0 10.5201 0.729394 11.8184 2.02772C13.1168 3.32605 13.8462 5.08696 13.8462 6.92308Z" fill="#232538"/>
</svg>
