<svg width="20" height="28" viewBox="0 0 20 28" fill="none" xmlns="http://www.w3.org/2000/svg">
<path d="M10.4655 0.676147L13.2537 2.11954L16.3577 2.59065L17.7643 5.39724L19.9979 7.60242L19.4867 10.6997L19.9979 13.797L17.7643 16.0022L16.3577 18.8088L13.2537 19.2799L10.4655 20.7233L7.67729 19.2799L4.57333 18.8088L3.16669 16.0022L0.933105 13.797L1.44431 10.6997L0.933105 7.60242L3.16669 5.39724L4.57333 2.59065L7.67729 2.11954L10.4655 0.676147Z" fill="#1E2A33"/>
<path d="M3.78369 20.3792V27.4057L10.4661 25.7351L17.1484 27.4057V20.3792L13.7772 20.8904L10.4661 22.6044L7.15495 20.8904L3.78369 20.3792Z" fill="#1E2A33"/>
</svg>
