<svg width="22" height="23" viewBox="0 0 22 23" fill="none" xmlns="http://www.w3.org/2000/svg">
<path d="M15.1237 8.58846C15.1237 9.68238 14.6892 10.7315 13.9156 11.505C13.1421 12.2785 12.093 12.7131 10.9991 12.7131C9.9052 12.7131 8.85609 12.2785 8.08258 11.505C7.30907 10.7315 6.87451 9.68238 6.87451 8.58846C6.87451 7.49455 7.30907 6.44545 8.08258 5.67193C8.85609 4.89842 9.9052 4.46387 10.9991 4.46387C12.093 4.46387 13.1421 4.89842 13.9156 5.67193C14.6892 6.44545 15.1237 7.49455 15.1237 8.58846Z" fill="#1E2A33"/>
<path fill-rule="evenodd" clip-rule="evenodd" d="M0 11.3382C0 8.42106 1.15881 5.62344 3.22151 3.56074C5.28421 1.49805 8.08183 0.339233 10.9989 0.339233C13.916 0.339233 16.7136 1.49805 18.7763 3.56074C20.839 5.62344 21.9979 8.42106 21.9979 11.3382C21.9979 14.2553 20.839 17.0529 18.7763 19.1156C16.7136 21.1783 13.916 22.3371 10.9989 22.3371C8.08183 22.3371 5.28421 21.1783 3.22151 19.1156C1.15881 17.0529 0 14.2553 0 11.3382ZM10.9989 1.7141C9.18655 1.7142 7.41103 2.22605 5.87673 3.19074C4.34243 4.15544 3.11171 5.53377 2.32622 7.16708C1.54074 8.8004 1.23241 10.6223 1.43673 12.4231C1.64105 14.224 2.34972 15.9305 3.48116 17.3463C4.45731 15.7735 6.60623 14.0879 10.9989 14.0879C15.3916 14.0879 17.5392 15.7721 18.5167 17.3463C19.6481 15.9305 20.3568 14.224 20.5611 12.4231C20.7654 10.6223 20.4571 8.8004 19.6716 7.16708C18.8861 5.53377 17.6554 4.15544 16.1211 3.19074C14.5868 2.22605 12.8113 1.7142 10.9989 1.7141Z" fill="#1E2A33"/>
</svg>
