<svg width="70" height="70" viewBox="0 0 70 70" fill="none" xmlns="http://www.w3.org/2000/svg">
<path d="M0 35V70H35H70V35V0H35H0V35Z" fill="#007ACC"/>
<path d="M15.4796 35.2322L15.4574 38.0988H20.0129H24.5685V51.0433V63.9877H27.7907H31.0129V51.0433V38.0988H35.5685H40.124V35.2877C40.124 33.7322 40.0907 32.4322 40.0462 32.3988C40.0129 32.3544 34.4685 32.3322 27.7462 32.3433L15.5129 32.3766L15.4796 35.2322Z" fill="white"/>
<path d="M56.4831 32.2952C58.2609 32.7397 59.6164 33.5286 60.8609 34.8175C61.5053 35.5064 62.4609 36.7619 62.5386 37.0619C62.5609 37.1508 59.5164 39.1952 57.672 40.3397C57.6053 40.3841 57.3386 40.0952 57.0386 39.6508C56.1386 38.3397 55.1942 37.773 53.7498 37.673C51.6275 37.5286 50.2609 38.6397 50.272 40.4952C50.272 41.0397 50.3498 41.3619 50.572 41.8064C51.0386 42.773 51.9053 43.3508 54.6275 44.5286C59.6386 46.6841 61.7831 48.1064 63.1164 50.1286C64.6053 52.3841 64.9386 55.9841 63.9275 58.6619C62.8164 61.573 60.0609 63.5508 56.1831 64.2064C54.9831 64.4175 52.1386 64.3841 50.8498 64.1508C48.0386 63.6508 45.372 62.2619 43.7275 60.4397C43.0831 59.7286 41.8275 57.873 41.9053 57.7397C41.9386 57.6952 42.2275 57.5175 42.5498 57.3286C42.8609 57.1508 44.0386 56.473 45.1498 55.8286L47.1609 54.6619L47.5831 55.2841C48.172 56.1841 49.4609 57.4175 50.2386 57.8286C52.472 59.0064 55.5386 58.8397 57.0498 57.4841C57.6942 56.8952 57.9609 56.2841 57.9609 55.3841C57.9609 54.573 57.8609 54.2175 57.4386 53.6064C56.8942 52.8286 55.7831 52.173 52.6275 50.8064C49.0164 49.2508 47.4609 48.2841 46.0386 46.7508C45.2164 45.8619 44.4386 44.4397 44.1164 43.2508C43.8498 42.2619 43.7831 39.7841 43.9942 38.7841C44.7386 35.2952 47.372 32.8619 51.172 32.1397C52.4053 31.9064 55.272 31.9952 56.4831 32.2952Z" fill="white"/>
</svg>
